<svg viewBox="0 0 900 149" width="900" height="149" xmlns="http://www.w3.org/2000/svg"><style>.a{fill:none;stroke-linejoin:round;stroke-width:0.8;stroke:#000;}.b{fill:none;stroke-linejoin:round;stroke-width:0.8;stroke:#f00;}.c{fill:none;stroke-dasharray:0.8;stroke-linejoin:round;stroke-width:0.8;stroke:#bdbdbd;}.d{fill:none;stroke-dasharray:3;stroke-linejoin:round;stroke-width:0.8;stroke:#f00;}.e{fill:#f00;}</style><defs><symbol OVERFLOW="visible"><path d="M2.9 0L2.3 0 2.3-4.4C2.1-4.3 1.9-4.1 1.6-4 1.3-3.8 1.1-3.7 0.9-3.6L0.9-4.3C1.2-4.4 1.6-4.7 1.9-4.9 2.2-5.2 2.4-5.4 2.5-5.7L2.9-5.7ZM2.9 0"/></symbol><symbol OVERFLOW="visible"><path d="M0.3-2.8C0.3-3.5 0.4-4 0.5-4.4 0.7-4.8 0.9-5.1 1.1-5.4 1.4-5.6 1.8-5.7 2.2-5.7 2.5-5.7 2.7-5.6 3-5.5 3.2-5.4 3.4-5.2 3.5-5 3.7-4.7 3.8-4.5 3.9-4.1 4-3.8 4-3.4 4-2.8 4-2.1 4-1.6 3.8-1.2 3.7-0.8 3.5-0.5 3.2-0.2 2.9 0 2.6 0.1 2.2 0.1 1.6 0.1 1.2-0.1 0.9-0.5 0.5-1 0.3-1.7 0.3-2.8ZM1-2.8C1-1.9 1.2-1.2 1.4-0.9 1.6-0.6 1.9-0.5 2.2-0.5 2.5-0.5 2.8-0.6 3-0.9 3.2-1.2 3.3-1.9 3.3-2.8 3.3-3.7 3.2-4.3 3-4.7 2.8-5 2.5-5.1 2.2-5.1 1.8-5.1 1.6-5 1.4-4.7 1.2-4.4 1-3.7 1-2.8ZM1-2.8"/></symbol><symbol OVERFLOW="visible"><path d="M0.3-1.5L1.1-1.5C1.1-1.2 1.2-0.9 1.4-0.7 1.6-0.6 1.9-0.5 2.1-0.5 2.5-0.5 2.8-0.6 3-0.9 3.2-1.1 3.3-1.4 3.3-1.9 3.3-2.3 3.2-2.6 3-2.8 2.8-3 2.5-3.1 2.1-3.1 1.9-3.1 1.7-3.1 1.5-3 1.3-2.9 1.2-2.8 1.1-2.6L0.5-2.7 1-5.6 3.8-5.6 3.8-4.9 1.6-4.9 1.3-3.4C1.6-3.6 1.9-3.8 2.3-3.8 2.8-3.8 3.2-3.6 3.6-3.2 3.9-2.9 4.1-2.5 4.1-1.9 4.1-1.4 3.9-1 3.6-0.6 3.3-0.1 2.8 0.1 2.1 0.1 1.6 0.1 1.2 0 0.9-0.3 0.6-0.6 0.4-1 0.3-1.5ZM0.3-1.5"/></symbol><symbol OVERFLOW="visible"><path d="M4-0.7L4 0 0.2 0C0.2-0.2 0.3-0.3 0.3-0.5 0.4-0.7 0.6-1 0.8-1.2 1-1.5 1.3-1.8 1.7-2.1 2.3-2.6 2.7-3 2.9-3.3 3.2-3.6 3.3-3.9 3.3-4.1 3.3-4.4 3.2-4.6 3-4.8 2.8-5 2.5-5.1 2.2-5.1 1.9-5.1 1.6-5 1.4-4.8 1.2-4.6 1.1-4.3 1.1-4L0.4-4.1C0.4-4.6 0.6-5 0.9-5.3 1.2-5.5 1.7-5.7 2.2-5.7 2.8-5.7 3.2-5.5 3.5-5.2 3.8-4.9 4-4.6 4-4.1 4-3.9 3.9-3.7 3.8-3.4 3.7-3.2 3.6-3 3.4-2.8 3.2-2.5 2.8-2.2 2.3-1.8 1.9-1.4 1.6-1.2 1.5-1 1.4-0.9 1.3-0.8 1.2-0.7ZM4-0.7"/></symbol><symbol OVERFLOW="visible"><path d="M0.3-1.5L1-1.6C1.1-1.2 1.2-0.9 1.4-0.7 1.6-0.6 1.9-0.5 2.1-0.5 2.5-0.5 2.7-0.6 3-0.8 3.2-1 3.3-1.3 3.3-1.7 3.3-2 3.2-2.2 3-2.4 2.8-2.7 2.5-2.8 2.2-2.8 2.1-2.8 1.9-2.7 1.7-2.7L1.8-3.3C1.8-3.3 1.9-3.3 1.9-3.3 2.2-3.3 2.5-3.4 2.7-3.5 2.9-3.7 3-3.9 3.1-4.2 3-4.5 3-4.7 2.8-4.9 2.6-5 2.4-5.1 2.1-5.1 1.9-5.1 1.6-5 1.4-4.9 1.3-4.7 1.1-4.4 1.1-4.1L0.4-4.2C0.5-4.7 0.7-5 1-5.3 1.3-5.6 1.7-5.7 2.1-5.7 2.4-5.7 2.7-5.6 3-5.5 3.2-5.4 3.4-5.2 3.6-4.9 3.7-4.7 3.8-4.5 3.8-4.2 3.8-4 3.7-3.7 3.6-3.6 3.4-3.3 3.2-3.2 3-3.1 3.3-3 3.6-2.8 3.8-2.6 3.9-2.3 4-2 4-1.7 4-1.2 3.9-0.8 3.5-0.4 3.1-0.1 2.7 0.1 2.1 0.1 1.6 0.1 1.2 0 0.9-0.3 0.6-0.6 0.4-1 0.3-1.5ZM0.3-1.5"/></symbol><symbol OVERFLOW="visible"><path d="M0.6 0L0.6-5.7 4.5-5.7 4.5-5 1.4-5 1.4-3.2 4.1-3.2 4.1-2.6 1.4-2.6 1.4 0ZM0.6 0"/></symbol><symbol OVERFLOW="visible"><path d="M0.5-4.9L0.5-5.7 1.2-5.7 1.2-4.9ZM0.5 0L0.5-4.1 1.2-4.1 1.2 0ZM0.5 0"/></symbol><symbol OVERFLOW="visible"><path d="M2-0.6L2.1 0C1.9 0 1.8 0.1 1.6 0.1 1.4 0.1 1.2 0 1-0.1 0.9-0.1 0.8-0.2 0.7-0.4 0.7-0.5 0.6-0.8 0.6-1.2L0.6-3.6 0.1-3.6 0.1-4.1 0.6-4.1 0.6-5.1 1.3-5.5 1.3-4.1 2-4.1 2-3.6 1.3-3.6 1.3-1.2C1.3-1 1.4-0.8 1.4-0.8 1.4-0.7 1.4-0.7 1.5-0.6 1.6-0.6 1.6-0.6 1.7-0.6 1.8-0.6 1.9-0.6 2-0.6ZM2-0.6"/></symbol><symbol OVERFLOW="visible"><path d="M3.3-1.3L4.1-1.2C3.9-0.8 3.7-0.5 3.4-0.3 3.1 0 2.7 0.1 2.2 0.1 1.6 0.1 1.2-0.1 0.8-0.5 0.5-0.8 0.3-1.3 0.3-2 0.3-2.7 0.5-3.2 0.8-3.6 1.2-4 1.6-4.2 2.2-4.2 2.8-4.2 3.2-4 3.6-3.6 3.9-3.3 4.1-2.7 4.1-2.1 4.1-2 4.1-2 4.1-1.9L1-1.9C1-1.4 1.2-1.1 1.4-0.8 1.6-0.6 1.9-0.5 2.3-0.5 2.5-0.5 2.7-0.5 2.9-0.7 3.1-0.8 3.2-1 3.3-1.3ZM1-2.4L3.3-2.4C3.3-2.8 3.2-3.1 3.1-3.2 2.9-3.5 2.6-3.6 2.2-3.6 1.9-3.6 1.6-3.5 1.4-3.3 1.2-3.1 1.1-2.8 1-2.4ZM1-2.4"/></symbol><symbol OVERFLOW="visible"><path d="M3.2 0L3.2-0.5C2.9-0.1 2.5 0.1 2 0.1 1.7 0.1 1.4 0 1.1-0.2 0.9-0.4 0.6-0.6 0.5-0.9 0.3-1.3 0.3-1.6 0.3-2.1 0.3-2.5 0.3-2.8 0.5-3.2 0.6-3.5 0.8-3.8 1.1-3.9 1.4-4.1 1.7-4.2 2-4.2 2.3-4.2 2.5-4.1 2.7-4 2.9-3.9 3-3.8 3.1-3.6L3.1-5.7 3.8-5.7 3.8 0ZM1-2.1C1-1.5 1.1-1.1 1.3-0.9 1.5-0.6 1.8-0.5 2.1-0.5 2.4-0.5 2.7-0.6 2.9-0.9 3.1-1.1 3.2-1.5 3.2-2 3.2-2.6 3.1-3 2.9-3.2 2.7-3.5 2.4-3.6 2.1-3.6 1.8-3.6 1.5-3.5 1.3-3.2 1.1-3 1-2.6 1-2.1ZM1-2.1"/></symbol><symbol OVERFLOW="visible"/><symbol OVERFLOW="visible"><path d="M1.7 0L0.1-4.1 0.8-4.1 1.7-1.6C1.8-1.4 1.9-1.1 2-0.8 2-1 2.1-1.3 2.2-1.6L3.2-4.1 3.9-4.1 2.3 0ZM1.7 0"/></symbol><symbol OVERFLOW="visible"><path d="M3.2-0.5C2.9-0.3 2.7-0.1 2.5 0 2.2 0.1 2 0.1 1.7 0.1 1.2 0.1 0.9 0 0.6-0.2 0.4-0.5 0.3-0.7 0.3-1.1 0.3-1.3 0.3-1.5 0.4-1.6 0.5-1.8 0.6-1.9 0.8-2 0.9-2.1 1.1-2.2 1.3-2.3 1.4-2.3 1.6-2.3 1.9-2.4 2.5-2.4 2.9-2.5 3.1-2.6 3.1-2.7 3.1-2.8 3.1-2.8 3.1-3.1 3.1-3.3 2.9-3.4 2.8-3.5 2.5-3.6 2.2-3.6 1.8-3.6 1.6-3.6 1.4-3.5 1.3-3.3 1.2-3.1 1.1-2.8L0.4-2.9C0.5-3.2 0.6-3.5 0.7-3.6 0.9-3.8 1.1-4 1.3-4.1 1.6-4.1 1.9-4.2 2.3-4.2 2.6-4.2 2.9-4.2 3.1-4.1 3.3-4 3.5-3.9 3.6-3.8 3.7-3.6 3.8-3.5 3.8-3.3 3.8-3.2 3.8-3 3.8-2.6L3.8-1.7C3.8-1.1 3.9-0.7 3.9-0.5 3.9-0.3 4-0.2 4.1 0L3.3 0C3.3-0.1 3.2-0.3 3.2-0.5ZM3.1-2.1C2.9-2 2.5-1.9 2-1.8 1.7-1.8 1.5-1.7 1.4-1.7 1.3-1.6 1.2-1.5 1.1-1.4 1.1-1.3 1-1.2 1-1.1 1-0.9 1.1-0.8 1.2-0.6 1.4-0.5 1.6-0.4 1.9-0.5 2.1-0.4 2.4-0.5 2.6-0.6 2.8-0.7 2.9-0.9 3-1.1 3.1-1.3 3.1-1.5 3.1-1.8ZM3.1-2.1"/></symbol><symbol OVERFLOW="visible"><path d="M0.5 0L0.5-5.7 1.2-5.7 1.2 0ZM0.5 0"/></symbol><symbol OVERFLOW="visible"><path d="M3.2 0L3.2-0.6C2.9-0.1 2.5 0.1 1.9 0.1 1.7 0.1 1.4 0 1.2 0 1-0.1 0.9-0.3 0.8-0.4 0.7-0.5 0.6-0.7 0.6-0.9 0.5-1 0.5-1.3 0.5-1.6L0.5-4.1 1.2-4.1 1.2-1.8C1.2-1.5 1.2-1.2 1.2-1.1 1.3-0.9 1.4-0.8 1.5-0.7 1.7-0.6 1.8-0.5 2.1-0.5 2.3-0.5 2.5-0.6 2.6-0.7 2.8-0.8 2.9-0.9 3-1.1 3.1-1.3 3.1-1.6 3.1-1.9L3.1-4.1 3.8-4.1 3.8 0ZM3.2 0"/></symbol><symbol OVERFLOW="visible"><path d="M0.2-1.2L0.9-1.3C1-1.1 1.1-0.8 1.3-0.7 1.4-0.6 1.7-0.5 2-0.5 2.3-0.5 2.6-0.5 2.7-0.7 2.9-0.8 2.9-1 2.9-1.1 2.9-1.3 2.9-1.4 2.7-1.5 2.6-1.6 2.4-1.6 2-1.7 1.5-1.9 1.2-2 1-2.1 0.8-2.2 0.6-2.3 0.5-2.5 0.4-2.6 0.4-2.8 0.4-3 0.4-3.2 0.4-3.4 0.5-3.5 0.6-3.7 0.7-3.8 0.8-3.9 0.9-4 1.1-4.1 1.3-4.1 1.5-4.2 1.7-4.2 1.9-4.2 2.2-4.2 2.5-4.1 2.7-4.1 3-4 3.1-3.8 3.3-3.7 3.4-3.5 3.5-3.3 3.5-3L2.8-3C2.8-3.2 2.7-3.3 2.6-3.4 2.4-3.6 2.2-3.6 1.9-3.6 1.6-3.6 1.4-3.6 1.2-3.5 1.1-3.4 1-3.2 1-3.1 1-3 1.1-2.9 1.1-2.9 1.2-2.8 1.3-2.7 1.4-2.7 1.5-2.6 1.7-2.6 2-2.5 2.5-2.4 2.8-2.2 3-2.2 3.2-2.1 3.4-2 3.5-1.8 3.6-1.6 3.7-1.4 3.7-1.2 3.7-1 3.6-0.8 3.5-0.6 3.3-0.3 3.1-0.2 2.9-0.1 2.6 0 2.3 0.1 2 0.1 1.5 0.1 1.1 0 0.8-0.2 0.5-0.5 0.3-0.8 0.2-1.2ZM0.2-1.2"/></symbol><symbol OVERFLOW="visible"><path d="M0.3-1.7L0.3-2.4 2.4-2.4 2.4-1.7ZM0.3-1.7"/></symbol><symbol OVERFLOW="visible"><path d="M2.1 0L2.1-5 0.2-5 0.2-5.7 4.7-5.7 4.7-5 2.8-5 2.8 0ZM2.1 0"/></symbol><symbol OVERFLOW="visible"><path d="M0.5 0L0.5-5.7 1.2-5.7 1.2-3.6C1.5-4 2-4.2 2.4-4.2 2.8-4.2 3-4.1 3.2-4 3.5-3.9 3.6-3.7 3.7-3.5 3.8-3.3 3.9-3 3.9-2.6L3.9 0 3.2 0 3.2-2.6C3.2-2.9 3.1-3.2 2.9-3.4 2.8-3.5 2.6-3.6 2.3-3.6 2.1-3.6 1.9-3.5 1.7-3.4 1.5-3.3 1.4-3.2 1.3-3 1.3-2.8 1.2-2.6 1.2-2.2L1.2 0ZM0.5 0"/></symbol><symbol OVERFLOW="visible"><path d="M0.3-2.1C0.3-2.8 0.5-3.4 0.9-3.7 1.2-4 1.7-4.2 2.2-4.2 2.8-4.2 3.2-4 3.6-3.6 3.9-3.3 4.1-2.8 4.1-2.1 4.1-1.6 4-1.2 3.9-0.9 3.7-0.6 3.5-0.3 3.2-0.2 2.9 0 2.5 0.1 2.2 0.1 1.6 0.1 1.1-0.1 0.8-0.5 0.4-0.8 0.3-1.4 0.3-2.1ZM1-2.1C1-1.5 1.1-1.1 1.3-0.9 1.5-0.6 1.8-0.5 2.2-0.5 2.5-0.5 2.8-0.6 3.1-0.9 3.3-1.1 3.4-1.5 3.4-2.1 3.4-2.6 3.3-3 3-3.2 2.8-3.5 2.5-3.6 2.2-3.6 1.8-3.6 1.5-3.5 1.3-3.2 1.1-3 1-2.6 1-2.1ZM1-2.1"/></symbol><symbol OVERFLOW="visible"><path d="M0.5 0L0.5-4.1 1.1-4.1 1.1-3.5C1.3-3.8 1.4-4 1.6-4.1 1.7-4.1 1.9-4.2 2-4.2 2.3-4.2 2.5-4.1 2.7-4L2.5-3.3C2.3-3.4 2.2-3.5 2-3.5 1.8-3.5 1.7-3.4 1.6-3.3 1.5-3.2 1.4-3.1 1.3-3 1.2-2.7 1.2-2.4 1.2-2.1L1.2 0ZM0.5 0"/></symbol><symbol OVERFLOW="visible"><path d="M3.2-1.5L3.9-1.4C3.8-0.9 3.6-0.6 3.3-0.3 3 0 2.6 0.1 2.2 0.1 1.6 0.1 1.2-0.1 0.8-0.5 0.5-0.8 0.3-1.4 0.3-2 0.3-2.5 0.4-2.9 0.5-3.2 0.7-3.5 0.9-3.8 1.2-3.9 1.5-4.1 1.8-4.2 2.2-4.2 2.6-4.2 3-4.1 3.3-3.9 3.6-3.6 3.7-3.3 3.8-2.9L3.1-2.8C3.1-3.1 3-3.3 2.8-3.4 2.6-3.6 2.4-3.6 2.2-3.6 1.9-3.6 1.6-3.5 1.4-3.2 1.1-3 1-2.6 1-2.1 1-1.5 1.1-1.1 1.3-0.9 1.6-0.6 1.8-0.5 2.2-0.5 2.4-0.5 2.7-0.6 2.9-0.7 3-0.9 3.2-1.2 3.2-1.5ZM3.2-1.5"/></symbol><symbol OVERFLOW="visible"><path d="M4.9-0.6C5.3-0.4 5.6-0.2 5.9-0.1L5.6 0.4C5.2 0.3 4.8 0.1 4.4-0.3 4 0 3.5 0.1 3 0.1 2.5 0.1 2.1 0 1.6-0.3 1.2-0.5 0.9-0.9 0.7-1.3 0.4-1.8 0.3-2.3 0.3-2.8 0.3-3.4 0.5-3.9 0.7-4.4 0.9-4.8 1.2-5.2 1.6-5.4 2.1-5.6 2.5-5.8 3.1-5.8 3.6-5.8 4-5.6 4.5-5.4 4.9-5.1 5.2-4.8 5.4-4.4 5.6-3.9 5.8-3.4 5.8-2.8 5.8-2.4 5.7-1.9 5.5-1.6 5.4-1.2 5.2-0.9 4.9-0.6ZM3.3-1.6C3.7-1.4 4-1.3 4.3-1 4.8-1.4 5-2 5-2.8 5-3.3 4.9-3.7 4.8-4 4.6-4.4 4.4-4.6 4.1-4.8 3.8-5 3.4-5.1 3.1-5.1 2.5-5.1 2-4.9 1.7-4.6 1.3-4.2 1.1-3.6 1.1-2.8 1.1-2.1 1.3-1.5 1.7-1.1 2-0.7 2.5-0.5 3.1-0.5 3.3-0.5 3.6-0.6 3.8-0.7 3.6-0.8 3.3-1 3.1-1ZM3.3-1.6"/></symbol><symbol OVERFLOW="visible"><path d="M0.5 0L0.5-4.1 1.1-4.1 1.1-3.5C1.4-4 1.9-4.2 2.5-4.2 2.7-4.2 2.9-4.2 3.1-4.1 3.3-4 3.5-3.9 3.6-3.7 3.7-3.6 3.8-3.4 3.8-3.2 3.8-3.1 3.9-2.8 3.9-2.5L3.9 0 3.2 0 3.2-2.5C3.2-2.8 3.1-3 3.1-3.1 3-3.3 2.9-3.4 2.8-3.5 2.7-3.6 2.5-3.6 2.3-3.6 2-3.6 1.8-3.5 1.5-3.3 1.3-3.1 1.2-2.8 1.2-2.2L1.2 0ZM0.5 0"/></symbol><symbol OVERFLOW="visible"><path d="M0.7 0L0.7-0.8 1.5-0.8 1.5 0ZM0.7 0"/></symbol><symbol OVERFLOW="visible"><path d="M2.6 0L2.6-1.4 0.1-1.4 0.1-2 2.7-5.7 3.3-5.7 3.3-2 4-2 4-1.4 3.3-1.4 3.3 0ZM2.6-2L2.6-4.6 0.8-2ZM2.6-2"/></symbol><symbol OVERFLOW="visible"><path d="M0.6 0L0.6-5.7 1.3-5.7 1.3-0.7 4.1-0.7 4.1 0ZM0.6 0"/></symbol><symbol OVERFLOW="visible"><path d="M0.4 0.3L1.1 0.4C1.1 0.6 1.2 0.8 1.3 0.9 1.5 1 1.7 1.1 2 1.1 2.3 1.1 2.6 1 2.8 0.9 2.9 0.8 3.1 0.6 3.1 0.4 3.2 0.2 3.2-0.1 3.2-0.5 2.9-0.2 2.5 0 2 0 1.5 0 1-0.2 0.7-0.6 0.4-1 0.3-1.5 0.3-2.1 0.3-2.5 0.3-2.8 0.5-3.2 0.6-3.5 0.8-3.7 1.1-3.9 1.4-4.1 1.7-4.2 2-4.2 2.5-4.2 2.9-4 3.2-3.6L3.2-4.1 3.9-4.1 3.9-0.6C3.9 0.1 3.8 0.5 3.7 0.8 3.5 1.1 3.3 1.3 3.1 1.4 2.8 1.6 2.4 1.7 2 1.7 1.5 1.7 1.1 1.6 0.8 1.3 0.5 1.1 0.4 0.8 0.4 0.3ZM1-2.1C1-1.6 1.1-1.2 1.3-0.9 1.5-0.7 1.8-0.6 2.1-0.6 2.4-0.6 2.7-0.7 2.9-0.9 3.1-1.2 3.2-1.6 3.2-2.1 3.2-2.6 3.1-3 2.9-3.2 2.7-3.5 2.4-3.6 2.1-3.6 1.8-3.6 1.5-3.5 1.3-3.2 1.1-3 1-2.6 1-2.1ZM1-2.1"/></symbol><symbol OVERFLOW="visible"><path d="M4.7-2L5.4-1.8C5.2-1.2 5-0.7 4.6-0.4 4.1-0.1 3.6 0.1 3.1 0.1 2.4 0.1 1.9 0 1.6-0.3 1.2-0.5 0.9-0.9 0.7-1.4 0.5-1.8 0.4-2.3 0.4-2.9 0.4-3.5 0.5-4 0.7-4.4 1-4.9 1.3-5.2 1.7-5.4 2.1-5.6 2.6-5.8 3.1-5.8 3.6-5.8 4.1-5.6 4.5-5.3 4.9-5 5.2-4.6 5.3-4.1L4.6-3.9C4.4-4.4 4.2-4.7 4-4.8 3.7-5 3.4-5.1 3.1-5.1 2.6-5.1 2.3-5 2-4.8 1.7-4.6 1.5-4.3 1.3-4 1.2-3.6 1.2-3.3 1.2-2.9 1.2-2.4 1.2-2 1.4-1.6 1.5-1.3 1.7-1 2-0.8 2.3-0.6 2.6-0.5 3-0.5 3.4-0.5 3.8-0.7 4.1-0.9 4.4-1.1 4.6-1.5 4.7-2ZM4.7-2"/></symbol><symbol OVERFLOW="visible"><path d="M0.5 0L0.5-5.7 1.2-5.7 1.2-2.4 2.9-4.1 3.8-4.1 2.2-2.6 3.9 0 3.1 0 1.7-2.1 1.2-1.6 1.2 0ZM0.5 0"/></symbol><symbol OVERFLOW="visible"><path d="M0.5-3.7L0.3-4.7 0.3-5.7 1.1-5.7 1.1-4.7 1-3.7ZM0.5-3.7"/></symbol><symbol OVERFLOW="visible"><path d="M-1.7-0.2L-2.4-0.2 -2.4-2.4 -1.7-2.4ZM-1.7-0.2"/></symbol><symbol OVERFLOW="visible"><path d="M0-2.6L-1.4-2.6 -1.4-0.1 -2-0.1 -5.7-2.7 -5.7-3.3 -2-3.3 -2-4 -1.4-4 -1.4-3.3 0-3.3ZM-2-2.6L-4.6-2.6 -2-0.8ZM-2-2.6"/></symbol><symbol OVERFLOW="visible"><path d="M-2.8-0.3C-3.5-0.3-4-0.4-4.4-0.5 -4.8-0.7-5.1-0.9-5.4-1.1 -5.6-1.4-5.7-1.8-5.7-2.2 -5.7-2.5-5.6-2.7-5.5-3 -5.4-3.2-5.2-3.4-5-3.5 -4.7-3.7-4.5-3.8-4.1-3.9 -3.8-4-3.4-4-2.8-4 -2.1-4-1.6-4-1.2-3.8 -0.8-3.7-0.5-3.5-0.2-3.2 0-2.9 0.1-2.6 0.1-2.2 0.1-1.6-0.1-1.2-0.5-0.9 -1-0.5-1.7-0.3-2.8-0.3ZM-2.8-1C-1.9-1-1.2-1.2-0.9-1.4 -0.6-1.6-0.5-1.9-0.5-2.2 -0.5-2.5-0.6-2.8-0.9-3 -1.2-3.2-1.9-3.3-2.8-3.3 -3.7-3.3-4.3-3.2-4.7-3 -5-2.8-5.1-2.5-5.1-2.2 -5.1-1.8-5-1.6-4.7-1.4 -4.4-1.2-3.7-1-2.8-1ZM-2.8-1"/></symbol><symbol OVERFLOW="visible"><path d="M0-0.6L-5.7-0.6 -5.7-3.1C-5.7-3.6-5.6-4-5.5-4.3 -5.4-4.6-5.2-4.8-5-4.9 -4.7-5.1-4.4-5.2-4.1-5.2 -3.7-5.2-3.4-5-3.1-4.8 -2.8-4.5-2.7-4.1-2.6-3.6 -2.5-3.8-2.4-3.9-2.3-4 -2.1-4.2-1.8-4.4-1.5-4.6L0-5.6 0-4.7 -1.2-3.9C-1.5-3.7-1.8-3.5-2-3.4 -2.1-3.2-2.3-3.1-2.3-3 -2.4-2.9-2.5-2.8-2.5-2.7 -2.5-2.6-2.5-2.4-2.5-2.2L-2.5-1.4 0-1.4ZM-3.2-1.4L-3.2-3C-3.2-3.3-3.2-3.6-3.3-3.8 -3.3-4-3.5-4.1-3.6-4.2 -3.8-4.3-3.9-4.4-4.1-4.4 -4.4-4.4-4.6-4.3-4.8-4.1 -5-3.9-5-3.6-5-3.2L-5-1.4ZM-3.2-1.4"/></symbol><symbol OVERFLOW="visible"><path d="M-1.3-3.3L-1.2-4.1C-0.8-3.9-0.5-3.7-0.3-3.4 0-3.1 0.1-2.7 0.1-2.2 0.1-1.6-0.1-1.2-0.5-0.8 -0.8-0.5-1.3-0.3-2-0.3 -2.7-0.3-3.2-0.5-3.6-0.8 -4-1.2-4.2-1.6-4.2-2.2 -4.2-2.8-4-3.2-3.6-3.6 -3.3-3.9-2.7-4.1-2.1-4.1 -2-4.1-2-4.1-1.9-4.1L-1.9-1C-1.4-1-1.1-1.2-0.8-1.4 -0.6-1.6-0.5-1.9-0.5-2.2 -0.5-2.5-0.5-2.7-0.7-2.9 -0.8-3.1-1-3.2-1.3-3.3ZM-2.4-1L-2.4-3.3C-2.8-3.3-3.1-3.2-3.2-3.1 -3.5-2.9-3.6-2.6-3.6-2.2 -3.6-1.9-3.5-1.6-3.3-1.4 -3.1-1.2-2.8-1.1-2.4-1ZM-2.4-1"/></symbol><symbol OVERFLOW="visible"><path d="M-1.2-0.2L-1.3-0.9C-1.1-1-0.8-1.1-0.7-1.3 -0.6-1.4-0.5-1.7-0.5-2 -0.5-2.3-0.5-2.6-0.7-2.7 -0.8-2.9-1-2.9-1.1-2.9 -1.3-2.9-1.4-2.9-1.5-2.7 -1.6-2.6-1.6-2.4-1.7-2 -1.9-1.5-2-1.2-2.1-1 -2.2-0.8-2.3-0.6-2.5-0.5 -2.6-0.4-2.8-0.4-3-0.4 -3.2-0.4-3.4-0.4-3.5-0.5 -3.7-0.6-3.8-0.7-3.9-0.8 -4-0.9-4.1-1.1-4.1-1.3 -4.2-1.5-4.2-1.7-4.2-1.9 -4.2-2.2-4.1-2.5-4.1-2.7 -4-3-3.8-3.1-3.7-3.3 -3.5-3.4-3.3-3.5-3-3.5L-3-2.8C-3.2-2.8-3.3-2.7-3.4-2.6 -3.6-2.4-3.6-2.2-3.6-1.9 -3.6-1.6-3.6-1.4-3.5-1.2 -3.4-1.1-3.2-1-3.1-1 -3-1-2.9-1.1-2.9-1.1 -2.8-1.2-2.7-1.3-2.7-1.4 -2.6-1.5-2.6-1.7-2.5-2 -2.4-2.5-2.2-2.8-2.2-3 -2.1-3.2-2-3.4-1.8-3.5 -1.6-3.6-1.4-3.7-1.2-3.7 -1-3.7-0.8-3.6-0.6-3.5 -0.3-3.3-0.2-3.1-0.1-2.9 0-2.6 0.1-2.3 0.1-2 0.1-1.5 0-1.1-0.2-0.8 -0.5-0.5-0.8-0.3-1.2-0.2ZM-1.2-0.2"/></symbol><symbol OVERFLOW="visible"><path d="M-4.9-0.5L-5.7-0.5 -5.7-1.2 -4.9-1.2ZM0-0.5L-4.1-0.5 -4.1-1.2 0-1.2ZM0-0.5"/></symbol><symbol OVERFLOW="visible"><path d="M0-3.2L-0.5-3.2C-0.1-2.9 0.1-2.5 0.1-2 0.1-1.7 0-1.4-0.2-1.1 -0.4-0.9-0.6-0.6-0.9-0.5 -1.3-0.3-1.6-0.3-2.1-0.3 -2.5-0.3-2.8-0.3-3.2-0.5 -3.5-0.6-3.8-0.8-3.9-1.1 -4.1-1.4-4.2-1.7-4.2-2 -4.2-2.3-4.1-2.5-4-2.7 -3.9-2.9-3.8-3-3.6-3.1L-5.7-3.1 -5.7-3.8 0-3.8ZM-2.1-1C-1.5-1-1.1-1.1-0.9-1.3 -0.6-1.5-0.5-1.8-0.5-2.1 -0.5-2.4-0.6-2.7-0.9-2.9 -1.1-3.1-1.5-3.2-2-3.2 -2.6-3.2-3-3.1-3.2-2.9 -3.5-2.7-3.6-2.4-3.6-2.1 -3.6-1.8-3.5-1.5-3.2-1.3 -3-1.1-2.6-1-2.1-1ZM-2.1-1"/></symbol><symbol OVERFLOW="visible"><path d="M0-3.2L-0.6-3.2C-0.1-2.9 0.1-2.5 0.1-1.9 0.1-1.7 0-1.4 0-1.2 -0.1-1-0.3-0.9-0.4-0.8 -0.5-0.7-0.7-0.6-0.9-0.6 -1-0.5-1.3-0.5-1.6-0.5L-4.1-0.5 -4.1-1.2 -1.8-1.2C-1.5-1.2-1.2-1.2-1.1-1.2 -0.9-1.3-0.8-1.4-0.7-1.5 -0.6-1.7-0.5-1.8-0.5-2.1 -0.5-2.3-0.6-2.5-0.7-2.6 -0.8-2.8-0.9-2.9-1.1-3 -1.3-3.1-1.6-3.1-1.9-3.1L-4.1-3.1 -4.1-3.8 0-3.8ZM0-3.2"/></symbol><symbol OVERFLOW="visible"><path d="M-0.5-3.2C-0.3-2.9-0.1-2.7 0-2.5 0.1-2.2 0.1-2 0.1-1.7 0.1-1.2 0-0.9-0.2-0.6 -0.5-0.4-0.7-0.3-1.1-0.3 -1.3-0.3-1.5-0.3-1.6-0.4 -1.8-0.5-1.9-0.6-2-0.8 -2.1-0.9-2.2-1.1-2.3-1.3 -2.3-1.4-2.3-1.6-2.4-1.9 -2.4-2.5-2.5-2.9-2.6-3.1 -2.7-3.1-2.8-3.1-2.8-3.1 -3.1-3.1-3.3-3.1-3.4-2.9 -3.5-2.8-3.6-2.5-3.6-2.2 -3.6-1.8-3.6-1.6-3.5-1.4 -3.3-1.3-3.1-1.2-2.8-1.1L-2.9-0.4C-3.2-0.5-3.5-0.6-3.6-0.7 -3.8-0.9-4-1.1-4.1-1.3 -4.1-1.6-4.2-1.9-4.2-2.3 -4.2-2.6-4.2-2.9-4.1-3.1 -4-3.3-3.9-3.5-3.8-3.6 -3.6-3.7-3.5-3.8-3.3-3.8 -3.2-3.8-3-3.8-2.6-3.8L-1.7-3.8C-1.1-3.8-0.7-3.9-0.5-3.9 -0.3-3.9-0.2-4 0-4.1L0-3.3C-0.1-3.3-0.3-3.2-0.5-3.2ZM-2.1-3.1C-2-2.9-1.9-2.5-1.8-2 -1.8-1.7-1.7-1.5-1.7-1.4 -1.6-1.3-1.5-1.2-1.4-1.1 -1.3-1.1-1.2-1-1.1-1 -0.9-1-0.8-1.1-0.6-1.2 -0.5-1.4-0.4-1.6-0.5-1.9 -0.4-2.1-0.5-2.4-0.6-2.6 -0.7-2.8-0.9-2.9-1.1-3 -1.3-3.1-1.5-3.1-1.8-3.1ZM-2.1-3.1"/></symbol><symbol OVERFLOW="visible"><path d="M0-0.5L-5.7-0.5 -5.7-1.2 0-1.2ZM0-0.5"/></symbol><symbol OVERFLOW="visible"><path d="M0-2.9L0-2.3 -4.4-2.3C-4.3-2.1-4.1-1.9-4-1.6 -3.8-1.3-3.7-1.1-3.6-0.9L-4.3-0.9C-4.4-1.2-4.7-1.6-4.9-1.9 -5.2-2.2-5.4-2.4-5.7-2.5L-5.7-2.9ZM0-2.9"/></symbol><symbol OVERFLOW="visible"><path d="M-0.7-4L0-4 0-0.2C-0.2-0.2-0.3-0.3-0.5-0.3 -0.7-0.4-1-0.6-1.2-0.8 -1.5-1-1.8-1.3-2.1-1.7 -2.6-2.3-3-2.7-3.3-2.9 -3.6-3.2-3.9-3.3-4.1-3.3 -4.4-3.3-4.6-3.2-4.8-3 -5-2.8-5.1-2.5-5.1-2.2 -5.1-1.9-5-1.6-4.8-1.4 -4.6-1.2-4.3-1.1-4-1.1L-4.1-0.4C-4.6-0.4-5-0.6-5.3-0.9 -5.5-1.2-5.7-1.7-5.7-2.2 -5.7-2.7-5.5-3.2-5.2-3.5 -4.9-3.8-4.6-4-4.1-4 -3.9-4-3.7-3.9-3.4-3.8 -3.2-3.7-3-3.6-2.8-3.4 -2.5-3.2-2.2-2.8-1.8-2.3 -1.4-1.9-1.2-1.6-1-1.5 -0.9-1.4-0.8-1.3-0.7-1.2ZM-0.7-4"/></symbol><symbol OVERFLOW="visible"><path d="M-1.8-0.4L-1.9-1.1C-1.6-1.1-1.4-1.2-1.2-1.3 -1-1.4-0.9-1.6-0.7-1.9 -0.6-2.1-0.6-2.4-0.6-2.7 -0.6-3-0.6-3.3-0.7-3.5 -0.8-3.7-0.9-3.9-1.1-4 -1.2-4.1-1.4-4.1-1.5-4.1 -1.7-4.1-1.9-4.1-2-4 -2.1-3.9-2.2-3.7-2.3-3.5 -2.4-3.3-2.5-3-2.6-2.5 -2.7-1.9-2.9-1.6-3-1.4 -3.1-1.1-3.3-0.9-3.5-0.8 -3.7-0.6-3.9-0.6-4.2-0.6 -4.5-0.6-4.8-0.7-5-0.8 -5.3-1-5.4-1.2-5.6-1.5 -5.7-1.8-5.8-2.2-5.8-2.6 -5.8-3-5.7-3.4-5.6-3.7 -5.4-4-5.2-4.2-5-4.4 -4.7-4.6-4.4-4.7-4.1-4.7L-4-4C-4.4-3.9-4.6-3.8-4.8-3.6 -5-3.4-5.1-3-5.1-2.6 -5.1-2.1-5-1.8-4.9-1.6 -4.7-1.4-4.5-1.3-4.3-1.3 -4.1-1.3-3.9-1.4-3.7-1.5 -3.6-1.7-3.5-2-3.3-2.6 -3.2-3.3-3.1-3.7-3-3.9 -2.8-4.2-2.6-4.5-2.4-4.6 -2.2-4.8-1.9-4.9-1.6-4.9 -1.3-4.9-1-4.8-0.7-4.6 -0.5-4.4-0.3-4.2-0.1-3.9 0-3.5 0.1-3.2 0.1-2.8 0.1-2.3 0-1.8-0.1-1.5 -0.3-1.1-0.5-0.9-0.8-0.7 -1.1-0.5-1.4-0.4-1.8-0.4ZM-1.8-0.4"/></symbol><symbol OVERFLOW="visible"><path d="M-0.6-2L0-2.1C0-1.9 0.1-1.8 0.1-1.6 0.1-1.4 0-1.2-0.1-1 -0.1-0.9-0.2-0.8-0.4-0.7 -0.5-0.7-0.8-0.6-1.2-0.6L-3.6-0.6 -3.6-0.1 -4.1-0.1 -4.1-0.6 -5.1-0.6 -5.5-1.3 -4.1-1.3 -4.1-2 -3.6-2 -3.6-1.3 -1.2-1.3C-1-1.3-0.8-1.4-0.8-1.4 -0.7-1.4-0.7-1.4-0.6-1.5 -0.6-1.6-0.6-1.6-0.6-1.7 -0.6-1.8-0.6-1.9-0.6-2ZM-0.6-2"/></symbol><symbol OVERFLOW="visible"><path d="M0-0.5L-4.1-0.5 -4.1-1.1 -3.5-1.1C-4-1.4-4.2-1.9-4.2-2.5 -4.2-2.7-4.2-2.9-4.1-3.1 -4-3.3-3.9-3.5-3.7-3.6 -3.6-3.7-3.4-3.8-3.2-3.8 -3.1-3.8-2.8-3.9-2.5-3.9L0-3.9 0-3.2 -2.5-3.2C-2.8-3.2-3-3.1-3.1-3.1 -3.3-3-3.4-2.9-3.5-2.8 -3.6-2.7-3.6-2.5-3.6-2.3 -3.6-2-3.5-1.8-3.3-1.5 -3.1-1.3-2.8-1.2-2.2-1.2L0-1.2ZM0-0.5"/></symbol><symbol OVERFLOW="visible"><path d="M0-0.5L-4.1-0.5 -4.1-1.1 -3.5-1.1C-3.8-1.3-4-1.4-4.1-1.6 -4.1-1.7-4.2-1.9-4.2-2 -4.2-2.3-4.1-2.5-4-2.7L-3.3-2.5C-3.4-2.3-3.5-2.2-3.5-2 -3.5-1.8-3.4-1.7-3.3-1.6 -3.2-1.5-3.1-1.4-3-1.3 -2.7-1.2-2.4-1.2-2.1-1.2L0-1.2ZM0-0.5"/></symbol><symbol OVERFLOW="visible"><path d="M0-0.2L-0.6-0.2 -3.6-2.8C-3.5-2.5-3.5-2.2-3.5-2L-3.5-0.3 -4.1-0.3 -4.1-3.7 -3.6-3.7 -1-1.4 -0.6-1C-0.6-1.3-0.6-1.6-0.6-1.9L-0.6-3.8 0-3.8ZM0-0.2"/></symbol><symbol OVERFLOW="visible"/><symbol OVERFLOW="visible"><path d="M0-0.7L-0.8-0.7 -0.8-1.5 0-1.5ZM0-0.7"/></symbol><symbol OVERFLOW="visible"><path d="M-1.5-0.3L-1.5-1.1C-1.2-1.1-0.9-1.2-0.7-1.4 -0.6-1.6-0.5-1.9-0.5-2.1 -0.5-2.5-0.6-2.8-0.9-3 -1.1-3.2-1.4-3.3-1.9-3.3 -2.3-3.3-2.6-3.2-2.8-3 -3-2.8-3.1-2.5-3.1-2.1 -3.1-1.9-3.1-1.7-3-1.5 -2.9-1.3-2.8-1.2-2.6-1.1L-2.7-0.5 -5.6-1 -5.6-3.8 -4.9-3.8 -4.9-1.6 -3.4-1.3C-3.6-1.6-3.8-1.9-3.8-2.3 -3.8-2.8-3.6-3.2-3.2-3.6 -2.9-3.9-2.5-4.1-1.9-4.1 -1.4-4.1-1-3.9-0.6-3.6 -0.1-3.3 0.1-2.8 0.1-2.1 0.1-1.6 0-1.2-0.3-0.9 -0.6-0.6-1-0.4-1.5-0.3ZM-1.5-0.3"/></symbol><symbol OVERFLOW="visible"><path d="M0.9 0L0.9-8.6 4.8-8.6C5.5-8.6 6.1-8.5 6.5-8.4 6.9-8.2 7.2-7.9 7.5-7.5 7.7-7.1 7.8-6.7 7.8-6.2 7.8-5.6 7.6-5.1 7.2-4.7 6.8-4.3 6.2-4 5.4-3.9 5.7-3.8 5.9-3.6 6.1-3.5 6.4-3.2 6.7-2.8 7-2.3L8.5 0 7.1 0 5.9-1.8C5.6-2.3 5.3-2.7 5.1-3 4.9-3.2 4.7-3.4 4.6-3.5 4.4-3.7 4.2-3.7 4-3.8 3.9-3.8 3.7-3.8 3.4-3.8L2.1-3.8 2.1 0ZM2.1-4.8L4.5-4.8C5-4.8 5.4-4.8 5.7-5 6-5.1 6.3-5.2 6.4-5.5 6.6-5.7 6.6-6 6.6-6.2 6.6-6.7 6.5-7 6.2-7.2 5.9-7.5 5.4-7.6 4.8-7.6L2.1-7.6ZM2.1-4.8"/></symbol><symbol OVERFLOW="visible"><path d="M5.1-2L6.1-1.9C6-1.2 5.6-0.7 5.2-0.4 4.7 0 4.1 0.1 3.4 0.1 2.5 0.1 1.8-0.1 1.2-0.7 0.7-1.3 0.4-2 0.4-3.1 0.4-4.1 0.7-4.9 1.2-5.5 1.8-6.1 2.5-6.4 3.3-6.4 4.2-6.4 4.9-6.1 5.4-5.5 5.9-4.9 6.2-4.1 6.2-3.1 6.2-3.1 6.2-3 6.2-2.8L1.5-2.8C1.6-2.2 1.8-1.6 2.1-1.3 2.5-0.9 2.9-0.7 3.4-0.7 3.8-0.7 4.1-0.8 4.4-1 4.7-1.2 4.9-1.6 5.1-2ZM1.6-3.7L5.1-3.7C5-4.2 4.9-4.6 4.7-4.9 4.3-5.3 3.9-5.5 3.4-5.5 2.9-5.5 2.5-5.3 2.1-5 1.8-4.7 1.6-4.2 1.6-3.7ZM1.6-3.7"/></symbol><symbol OVERFLOW="visible"><path d="M0.4-1.9L1.4-2C1.5-1.6 1.6-1.3 1.9-1.1 2.2-0.8 2.5-0.7 3-0.7 3.5-0.7 3.9-0.8 4.1-1 4.3-1.2 4.5-1.4 4.5-1.7 4.5-2 4.3-2.1 4.1-2.3 4-2.4 3.6-2.5 3.1-2.6 2.3-2.8 1.8-3 1.5-3.1 1.2-3.3 0.9-3.5 0.8-3.7 0.6-4 0.5-4.3 0.5-4.6 0.5-4.8 0.6-5.1 0.7-5.3 0.9-5.6 1-5.8 1.3-5.9 1.4-6 1.6-6.1 1.9-6.2 2.2-6.3 2.5-6.4 2.8-6.4 3.3-6.4 3.8-6.3 4.1-6.2 4.5-6 4.8-5.8 4.9-5.6 5.1-5.3 5.2-5 5.3-4.6L4.3-4.5C4.2-4.8 4.1-5 3.9-5.2 3.6-5.4 3.3-5.5 2.9-5.5 2.4-5.5 2.1-5.4 1.9-5.3 1.7-5.1 1.6-4.9 1.6-4.7 1.6-4.6 1.6-4.4 1.7-4.3 1.8-4.2 1.9-4.1 2.1-4 2.2-4 2.5-3.9 3-3.8 3.8-3.6 4.3-3.4 4.6-3.3 4.9-3.2 5.1-3 5.3-2.7 5.5-2.5 5.5-2.2 5.5-1.8 5.5-1.5 5.4-1.1 5.2-0.8 5-0.5 4.7-0.3 4.3-0.1 4 0.1 3.5 0.1 3 0.1 2.2 0.1 1.6 0 1.2-0.4 0.8-0.7 0.5-1.2 0.4-1.9ZM0.4-1.9"/></symbol><symbol OVERFLOW="visible"><path d="M0.8-7.4L0.8-8.6 1.9-8.6 1.9-7.4ZM0.8 0L0.8-6.2 1.9-6.2 1.9 0ZM0.8 0"/></symbol><symbol OVERFLOW="visible"><path d="M4.8 0L4.8-0.8C4.4-0.2 3.8 0.1 3.1 0.1 2.6 0.1 2.1 0 1.7-0.3 1.3-0.5 1-0.9 0.8-1.4 0.5-1.9 0.4-2.5 0.4-3.1 0.4-3.7 0.5-4.3 0.7-4.8 0.9-5.3 1.2-5.7 1.7-6 2.1-6.2 2.5-6.4 3-6.4 3.4-6.4 3.7-6.3 4-6.1 4.3-6 4.6-5.8 4.8-5.5L4.8-8.6 5.8-8.6 5.8 0ZM1.5-3.1C1.5-2.3 1.7-1.7 2-1.3 2.3-0.9 2.7-0.7 3.2-0.7 3.6-0.7 4-0.9 4.4-1.3 4.7-1.7 4.8-2.2 4.8-3 4.8-3.9 4.7-4.5 4.4-4.9 4-5.3 3.6-5.5 3.1-5.5 2.7-5.5 2.3-5.3 2-4.9 1.6-4.5 1.5-3.9 1.5-3.1ZM1.5-3.1"/></symbol><symbol OVERFLOW="visible"><path d="M4.9 0L4.9-0.9C4.4-0.2 3.7 0.1 2.9 0.1 2.5 0.1 2.2 0.1 1.9-0.1 1.5-0.2 1.3-0.4 1.2-0.6 1-0.8 0.9-1.1 0.8-1.4 0.8-1.6 0.8-1.9 0.8-2.4L0.8-6.2 1.8-6.2 1.8-2.8C1.8-2.2 1.8-1.8 1.9-1.7 1.9-1.4 2.1-1.2 2.3-1 2.5-0.8 2.8-0.8 3.1-0.8 3.4-0.8 3.7-0.8 4-1 4.3-1.2 4.5-1.4 4.6-1.7 4.7-1.9 4.8-2.4 4.8-2.9L4.8-6.2 5.8-6.2 5.8 0ZM4.9 0"/></symbol><symbol OVERFLOW="visible"><path d="M4.9-0.8C4.5-0.4 4.1-0.2 3.7-0.1 3.4 0.1 3 0.1 2.6 0.1 1.9 0.1 1.4 0 1-0.4 0.6-0.7 0.4-1.1 0.4-1.6 0.4-1.9 0.5-2.2 0.6-2.5 0.8-2.7 1-2.9 1.2-3.1 1.4-3.2 1.7-3.3 1.9-3.4 2.2-3.5 2.5-3.5 2.9-3.6 3.7-3.7 4.4-3.8 4.8-3.9 4.8-4.1 4.8-4.2 4.8-4.2 4.8-4.6 4.7-5 4.5-5.1 4.2-5.4 3.8-5.5 3.3-5.5 2.8-5.5 2.4-5.4 2.2-5.2 1.9-5.1 1.8-4.7 1.6-4.3L0.6-4.4C0.7-4.9 0.9-5.2 1.1-5.5 1.3-5.8 1.6-6 2-6.1 2.4-6.3 2.9-6.4 3.4-6.4 4-6.4 4.4-6.3 4.7-6.2 5-6.1 5.3-5.9 5.4-5.7 5.6-5.5 5.7-5.3 5.8-5 5.8-4.8 5.8-4.5 5.8-4L5.8-2.6C5.8-1.6 5.8-1 5.9-0.7 5.9-0.5 6-0.2 6.2 0L5.1 0C5-0.2 4.9-0.5 4.9-0.8ZM4.8-3.1C4.4-3 3.8-2.8 3-2.7 2.6-2.7 2.3-2.6 2.1-2.5 1.9-2.4 1.8-2.3 1.7-2.2 1.6-2 1.6-1.9 1.6-1.7 1.6-1.4 1.7-1.2 1.9-1 2.1-0.8 2.4-0.7 2.8-0.7 3.2-0.7 3.6-0.8 3.9-1 4.2-1.1 4.4-1.4 4.6-1.7 4.7-1.9 4.8-2.3 4.8-2.7ZM4.8-3.1"/></symbol><symbol OVERFLOW="visible"><path d="M0.8 0L0.8-8.6 1.8-8.6 1.8 0ZM0.8 0"/></symbol><symbol OVERFLOW="visible"/><symbol OVERFLOW="visible"><path d="M2.5 0L0.2-6.2 1.3-6.2 2.6-2.5C2.7-2.1 2.9-1.7 3-1.2 3.1-1.6 3.2-2 3.4-2.4L4.8-6.2 5.9-6.2 3.5 0ZM2.5 0"/></symbol><symbol OVERFLOW="visible"><path d="M1 0L1-8.6 6.8-8.6 6.8-7.6 2.1-7.6 2.1-4.9 6.2-4.9 6.2-3.9 2.1-3.9 2.1 0ZM1 0"/></symbol><symbol OVERFLOW="visible"><path d="M3.1-0.9L3.2 0C2.9 0.1 2.7 0.1 2.4 0.1 2.1 0.1 1.8 0 1.6-0.1 1.3-0.2 1.2-0.4 1.1-0.6 1-0.8 1-1.2 1-1.8L1-5.4 0.2-5.4 0.2-6.2 1-6.2 1-7.8 2-8.4 2-6.2 3.1-6.2 3.1-5.4 2-5.4 2-1.8C2-1.5 2-1.3 2.1-1.2 2.1-1.1 2.2-1 2.3-1 2.4-0.9 2.5-0.9 2.6-0.9 2.7-0.9 2.9-0.9 3.1-0.9ZM3.1-0.9"/></symbol><symbol OVERFLOW="visible"><path d="M0.9 0L0.9-8.6 2.1-8.6 6.6-1.8 6.6-8.6 7.7-8.6 7.7 0 6.5 0 2-6.7 2 0ZM0.9 0"/></symbol><symbol OVERFLOW="visible"><path d="M0.4-3.1C0.4-4.3 0.7-5.1 1.4-5.7 1.9-6.1 2.5-6.4 3.3-6.4 4.2-6.4 4.9-6.1 5.4-5.5 6-5 6.2-4.2 6.2-3.2 6.2-2.4 6.1-1.8 5.9-1.3 5.6-0.8 5.3-0.5 4.8-0.2 4.4 0 3.9 0.1 3.3 0.1 2.4 0.1 1.7-0.1 1.2-0.7 0.7-1.3 0.4-2.1 0.4-3.1ZM1.5-3.1C1.5-2.3 1.7-1.7 2-1.3 2.3-0.9 2.8-0.7 3.3-0.7 3.8-0.7 4.3-0.9 4.6-1.3 5-1.7 5.1-2.3 5.1-3.1 5.1-3.9 5-4.5 4.6-4.9 4.3-5.3 3.8-5.5 3.3-5.5 2.8-5.5 2.3-5.3 2-4.9 1.7-4.5 1.5-3.9 1.5-3.1ZM1.5-3.1"/></symbol><symbol OVERFLOW="visible"><path d="M0.8 0L0.8-6.2 1.7-6.2 1.7-5.3C2-5.7 2.2-6 2.4-6.2 2.6-6.3 2.8-6.4 3.1-6.4 3.4-6.4 3.8-6.2 4.2-6L3.8-5C3.5-5.2 3.3-5.3 3-5.3 2.8-5.3 2.6-5.2 2.4-5.1 2.2-4.9 2.1-4.7 2-4.5 1.9-4.1 1.8-3.7 1.8-3.3L1.8 0ZM0.8 0"/></symbol><symbol OVERFLOW="visible"><path d="M0.8 0L0.8-6.2 1.7-6.2 1.7-5.4C1.9-5.6 2.2-5.9 2.5-6.1 2.8-6.3 3.2-6.4 3.6-6.4 4.1-6.4 4.5-6.3 4.8-6.1 5-5.9 5.3-5.6 5.4-5.3 5.9-6 6.5-6.4 7.3-6.4 7.9-6.4 8.4-6.2 8.7-5.8 9.1-5.5 9.2-5 9.2-4.3L9.2 0 8.2 0 8.2-3.9C8.2-4.3 8.1-4.6 8.1-4.8 8-5 7.9-5.2 7.7-5.3 7.5-5.4 7.3-5.4 7.1-5.4 6.6-5.4 6.3-5.3 6-5 5.7-4.7 5.5-4.3 5.5-3.6L5.5 0 4.5 0 4.5-4C4.5-4.5 4.4-4.9 4.2-5.1 4.1-5.3 3.8-5.4 3.4-5.4 3.1-5.4 2.8-5.4 2.6-5.2 2.3-5.1 2.1-4.8 2-4.5 1.9-4.2 1.8-3.8 1.8-3.2L1.8 0ZM0.8 0"/></symbol><symbol OVERFLOW="visible"><path d="M7.4-0.9C8-0.6 8.4-0.3 8.9-0.1L8.6 0.7C7.9 0.4 7.3 0.1 6.7-0.4 6.1 0 5.4 0.1 4.6 0.1 3.8 0.1 3.1 0 2.5-0.4 1.9-0.8 1.4-1.3 1-2 0.7-2.7 0.5-3.4 0.5-4.3 0.5-5.1 0.7-5.9 1-6.6 1.4-7.3 1.9-7.8 2.5-8.2 3.1-8.6 3.8-8.7 4.6-8.7 5.4-8.7 6.1-8.6 6.8-8.2 7.4-7.8 7.9-7.3 8.2-6.6 8.6-5.9 8.7-5.2 8.7-4.3 8.7-3.6 8.6-3 8.4-2.4 8.2-1.8 7.9-1.3 7.4-0.9ZM4.9-2.4C5.6-2.2 6.1-1.9 6.6-1.6 7.2-2.2 7.6-3.1 7.6-4.3 7.6-5 7.4-5.6 7.2-6.1 7-6.6 6.6-7 6.2-7.3 5.7-7.6 5.2-7.8 4.6-7.8 3.8-7.8 3.1-7.5 2.5-6.9 2-6.3 1.7-5.4 1.7-4.3 1.7-3.2 2-2.3 2.5-1.7 3.1-1.1 3.8-0.8 4.6-0.8 5-0.8 5.4-0.9 5.8-1.1 5.4-1.3 5.1-1.4 4.7-1.5ZM4.9-2.4"/></symbol><symbol OVERFLOW="visible"><path d="M0.4-2.6L0.4-3.6 3.6-3.6 3.6-2.6ZM0.4-2.6"/></symbol><symbol OVERFLOW="visible"><path d="M0.5-2.8L1.6-2.9C1.7-2.4 1.8-2.1 2-1.8 2.1-1.5 2.4-1.3 2.8-1.1 3.2-1 3.7-0.9 4.1-0.9 4.6-0.9 5-0.9 5.3-1.1 5.6-1.2 5.9-1.4 6-1.6 6.2-1.8 6.3-2.1 6.3-2.3 6.3-2.6 6.2-2.8 6-3 5.9-3.2 5.6-3.4 5.3-3.5 5-3.6 4.5-3.8 3.7-4 3-4.2 2.4-4.3 2.1-4.5 1.7-4.7 1.4-5 1.2-5.3 1-5.6 0.9-6 0.9-6.4 0.9-6.8 1-7.2 1.2-7.6 1.5-8 1.8-8.2 2.3-8.4 2.8-8.6 3.3-8.7 3.9-8.7 4.5-8.7 5.1-8.6 5.6-8.4 6.1-8.2 6.4-7.9 6.7-7.5 7-7.1 7.1-6.7 7.1-6.2L6-6.1C6-6.6 5.8-7 5.4-7.3 5.1-7.6 4.6-7.7 3.9-7.7 3.3-7.7 2.7-7.6 2.4-7.4 2.1-7.1 2-6.8 2-6.4 2-6.1 2.1-5.9 2.3-5.7 2.5-5.5 3.1-5.3 4-5.1 4.9-4.9 5.6-4.7 5.9-4.5 6.4-4.3 6.8-4 7-3.6 7.3-3.3 7.4-2.9 7.4-2.4 7.4-2 7.2-1.5 7-1.1 6.7-0.7 6.3-0.4 5.9-0.2 5.4 0 4.8 0.1 4.2 0.1 3.4 0.1 2.8 0 2.2-0.2 1.7-0.4 1.3-0.8 1-1.2 0.7-1.7 0.6-2.2 0.5-2.8ZM0.5-2.8"/></symbol><symbol OVERFLOW="visible"><path d="M4.9-2.3L5.9-2.1C5.8-1.4 5.5-0.9 5-0.5 4.6-0.1 4 0.1 3.3 0.1 2.4 0.1 1.8-0.1 1.2-0.7 0.7-1.2 0.5-2 0.5-3.1 0.5-3.8 0.6-4.3 0.8-4.9 1-5.4 1.4-5.7 1.8-6 2.3-6.2 2.8-6.4 3.3-6.4 4-6.4 4.5-6.2 5-5.8 5.4-5.5 5.7-5 5.8-4.4L4.8-4.2C4.7-4.7 4.5-5 4.2-5.2 4-5.4 3.7-5.5 3.3-5.5 2.8-5.5 2.4-5.3 2.1-4.9 1.7-4.5 1.6-3.9 1.6-3.1 1.6-2.3 1.7-1.7 2-1.3 2.4-0.9 2.8-0.7 3.3-0.7 3.7-0.7 4-0.9 4.3-1.1 4.6-1.4 4.8-1.7 4.9-2.3ZM4.9-2.3"/></symbol><symbol OVERFLOW="visible"><path d="M0.9 0L0.9-8.6 2-8.6 2-1 6.2-1 6.2 0ZM0.9 0"/></symbol><symbol OVERFLOW="visible"><path d="M0.8 0L0.8-6.2 1.7-6.2 1.7-5.3C2.2-6 2.9-6.4 3.7-6.4 4.1-6.4 4.4-6.3 4.8-6.2 5.1-6 5.3-5.8 5.5-5.6 5.6-5.4 5.7-5.2 5.8-4.9 5.8-4.7 5.8-4.3 5.8-3.8L5.8 0 4.8 0 4.8-3.8C4.8-4.2 4.8-4.5 4.7-4.7 4.6-5 4.4-5.1 4.2-5.3 4-5.4 3.8-5.4 3.5-5.4 3-5.4 2.7-5.3 2.3-5 2-4.7 1.8-4.2 1.8-3.4L1.8 0ZM0.8 0"/></symbol><symbol OVERFLOW="visible"><path d="M0.6 0.5L1.6 0.7C1.7 1 1.8 1.2 2 1.4 2.2 1.6 2.6 1.7 3.1 1.7 3.5 1.7 3.9 1.6 4.2 1.4 4.4 1.2 4.6 0.9 4.7 0.5 4.8 0.3 4.8-0.1 4.8-0.8 4.3-0.3 3.8 0 3.1 0 2.2 0 1.6-0.3 1.1-0.9 0.6-1.5 0.4-2.3 0.4-3.1 0.4-3.7 0.5-4.3 0.7-4.8 0.9-5.3 1.2-5.7 1.6-6 2.1-6.2 2.5-6.4 3.1-6.4 3.8-6.4 4.4-6.1 4.9-5.5L4.9-6.2 5.9-6.2 5.9-0.8C5.9 0.1 5.8 0.8 5.6 1.2 5.4 1.6 5.1 1.9 4.6 2.2 4.2 2.4 3.7 2.5 3.1 2.5 2.3 2.5 1.7 2.4 1.3 2 0.8 1.7 0.6 1.2 0.6 0.5ZM1.5-3.2C1.5-2.4 1.6-1.8 2-1.4 2.3-1.1 2.7-0.9 3.2-0.9 3.7-0.9 4.1-1.1 4.4-1.4 4.7-1.8 4.9-2.4 4.9-3.2 4.9-3.9 4.7-4.5 4.4-4.9 4-5.3 3.6-5.5 3.2-5.5 2.7-5.5 2.3-5.3 2-4.9 1.6-4.5 1.5-4 1.5-3.2ZM1.5-3.2"/></symbol><symbol OVERFLOW="visible"><path d="M3-0.5L3 0 0.2 0C0.2-0.1 0.2-0.2 0.2-0.4 0.3-0.6 0.4-0.7 0.6-0.9 0.7-1.1 1-1.3 1.3-1.6 1.7-1.9 2-2.2 2.2-2.5 2.4-2.7 2.4-2.9 2.4-3.1 2.4-3.3 2.4-3.5 2.2-3.6 2.1-3.8 1.9-3.8 1.6-3.8 1.4-3.8 1.2-3.8 1-3.6 0.9-3.5 0.8-3.2 0.8-3L0.3-3C0.3-3.4 0.4-3.7 0.7-4 0.9-4.2 1.3-4.3 1.7-4.3 2.1-4.3 2.4-4.2 2.6-3.9 2.9-3.7 3-3.4 3-3.1 3-2.9 2.9-2.7 2.9-2.6 2.8-2.4 2.7-2.2 2.5-2.1 2.4-1.9 2.1-1.6 1.7-1.3 1.4-1.1 1.2-0.9 1.1-0.8 1-0.7 1-0.6 0.9-0.5ZM3-0.5"/></symbol><symbol OVERFLOW="visible"><path d="M0.2-2.1C0.2-2.6 0.3-3 0.4-3.3 0.5-3.6 0.7-3.9 0.9-4 1.1-4.2 1.3-4.3 1.6-4.3 1.9-4.3 2.1-4.2 2.2-4.1 2.4-4 2.5-3.9 2.7-3.7 2.8-3.6 2.9-3.3 2.9-3.1 3-2.9 3-2.5 3-2.1 3-1.6 3-1.2 2.9-0.9 2.8-0.6 2.6-0.3 2.4-0.2 2.2 0 1.9 0.1 1.6 0.1 1.2 0.1 0.9-0.1 0.7-0.4 0.4-0.7 0.2-1.3 0.2-2.1ZM0.8-2.1C0.8-1.4 0.9-0.9 1-0.7 1.2-0.5 1.4-0.4 1.6-0.4 1.9-0.4 2.1-0.5 2.2-0.7 2.4-0.9 2.5-1.4 2.5-2.1 2.5-2.8 2.4-3.3 2.2-3.5 2.1-3.7 1.9-3.8 1.6-3.8 1.4-3.8 1.2-3.7 1.1-3.5 0.9-3.3 0.8-2.8 0.8-2.1ZM0.8-2.1"/></symbol><symbol OVERFLOW="visible"><path d="M2.2 0L1.7 0 1.7-3.3C1.6-3.2 1.4-3.1 1.2-3 1-2.8 0.8-2.8 0.6-2.7L0.6-3.2C0.9-3.3 1.2-3.5 1.4-3.7 1.6-3.9 1.8-4.1 1.9-4.3L2.2-4.3ZM2.2 0"/></symbol><symbol OVERFLOW="visible"><path d="M1.1-2.3C0.8-2.4 0.7-2.5 0.6-2.6 0.5-2.8 0.4-3 0.4-3.2 0.4-3.5 0.5-3.7 0.7-4 1-4.2 1.3-4.3 1.6-4.3 2-4.3 2.3-4.2 2.5-3.9 2.8-3.7 2.9-3.5 2.9-3.2 2.9-3 2.8-2.8 2.7-2.6 2.6-2.5 2.4-2.4 2.2-2.3 2.5-2.2 2.7-2.1 2.8-1.9 3-1.7 3-1.5 3-1.2 3-0.8 2.9-0.5 2.7-0.3 2.4-0.1 2.1 0.1 1.6 0.1 1.2 0.1 0.9-0.1 0.6-0.3 0.4-0.5 0.2-0.9 0.2-1.2 0.2-1.5 0.3-1.7 0.4-1.9 0.6-2.1 0.8-2.2 1.1-2.3ZM0.9-3.2C0.9-3 1-2.8 1.1-2.7 1.3-2.6 1.4-2.5 1.6-2.5 1.8-2.5 2-2.6 2.1-2.7 2.3-2.8 2.3-3 2.3-3.2 2.3-3.3 2.3-3.5 2.1-3.6 2-3.8 1.8-3.8 1.6-3.8 1.4-3.8 1.3-3.8 1.1-3.6 1-3.5 0.9-3.4 0.9-3.2ZM0.8-1.2C0.8-1.1 0.8-0.9 0.9-0.8 0.9-0.7 1.1-0.5 1.2-0.5 1.3-0.4 1.5-0.4 1.6-0.4 1.9-0.4 2.1-0.4 2.3-0.6 2.4-0.8 2.5-1 2.5-1.2 2.5-1.5 2.4-1.7 2.3-1.8 2.1-2 1.9-2.1 1.6-2.1 1.4-2.1 1.2-2 1-1.8 0.9-1.7 0.8-1.5 0.8-1.2ZM0.8-1.2"/></symbol><symbol OVERFLOW="visible"><path d="M0.3-3.7L0.3-4.2 3-4.2 3-3.8C2.8-3.5 2.5-3.1 2.2-2.6 2-2.2 1.8-1.7 1.6-1.2 1.5-0.8 1.4-0.4 1.4 0L0.9 0C0.9-0.3 0.9-0.7 1.1-1.2 1.2-1.7 1.4-2.1 1.6-2.6 1.8-3 2.1-3.4 2.4-3.7ZM0.3-3.7"/></symbol><symbol OVERFLOW="visible"><path d="M0.5 0L0.5-0.6 1.1-0.6 1.1 0ZM0.5 0"/></symbol><symbol OVERFLOW="visible"><path d="M0.2-1.1L0.8-1.2C0.8-0.9 0.9-0.7 1.1-0.6 1.2-0.4 1.4-0.4 1.6-0.4 1.9-0.4 2.1-0.4 2.3-0.6 2.4-0.8 2.5-1.1 2.5-1.4 2.5-1.7 2.4-1.9 2.3-2.1 2.1-2.3 1.9-2.4 1.6-2.4 1.4-2.4 1.3-2.3 1.1-2.2 1-2.2 0.9-2.1 0.8-1.9L0.3-2 0.8-4.2 2.9-4.2 2.9-3.7 1.2-3.7 0.9-2.6C1.2-2.7 1.5-2.8 1.7-2.8 2.1-2.8 2.4-2.7 2.7-2.4 2.9-2.2 3.1-1.8 3.1-1.4 3.1-1.1 3-0.7 2.7-0.4 2.5-0.1 2.1 0.1 1.6 0.1 1.2 0.1 0.9 0 0.7-0.2 0.4-0.5 0.3-0.8 0.2-1.1ZM0.2-1.1"/></symbol><clipPath><path d="M0 0L226 0 226 150 0 150ZM0 0"/></clipPath><clipPath><path d="M39 39L206 39 206 101.5 39 101.5ZM39 39"/></clipPath><clipPath><path d="M0 0L226 0 226 150 0 150ZM0 0"/></clipPath><clipPath><path d="M39 39L206 39 206 101.5 39 101.5ZM39 39"/></clipPath><clipPath><path d="M264 39L431 39 431 101.5 264 101.5ZM264 39"/></clipPath><clipPath><path d="M225 0L451 0 451 150 225 150ZM225 0"/></clipPath><clipPath><path d="M264 39L431 39 431 101.5 264 101.5ZM264 39"/></clipPath><clipPath><path d="M225 0L451 0 451 150 225 150ZM225 0"/></clipPath><clipPath><path d="M450 0L676 0 676 150 450 150ZM450 0"/></clipPath><clipPath><path d="M489 39L656 39 656 101.5 489 101.5ZM489 39"/></clipPath><clipPath><path d="M450 0L676 0 676 150 450 150ZM450 0"/></clipPath><clipPath><path d="M675 0L901 0 901 150 675 150ZM675 0"/></clipPath><clipPath><path d="M714 39L881 39 881 101.5 714 101.5ZM714 39"/></clipPath><clipPath><path d="M675 0L901 0 901 150 675 150ZM675 0"/></clipPath><filter width="1" height="1" color-interpolation-filters="sRGB"><feGaussianBlur result="blur" stdDeviation="3.92, 4.18"/><feColorMatrix result="colormatrix" values="1 0 0 0 0 0 1 0 0 0 0 0 1 0 0 0 0 0 50 0"/><feComposite result="fbSourceGraphic" in="colormatrix" in2="SourceGraphic" operator="in"/><feColorMatrix result="fbSourceGraphicAlpha" in="fbSourceGraphic" values="0 0 0 -1 0 0 0 0 -1 0 0 0 0 -1 0 0 0 0 1 0"/><feColorMatrix result="result2" in="fbSourceGraphic" type="luminanceToAlpha"/><feComposite result="result4" in="result2" in2="fbSourceGraphic" operator="arithmetic" k3="2"/><feBlend result="result3" in="result4" in2="result2" mode="multiply"/><feComposite in="result3" in2="fbSourceGraphic" operator="in"/></filter></defs><g transform="scale(1.25 1)" filter="url(#filter1559)"><rect width="900" height="149" fill="#fff"/><path d="M45.1 100.5H202.9" class="a"/><path d="m45.1 100.5v4.8" class="a"/><path d="m84.6 100.5v4.8" class="a"/><path d="m124 100.5v4.8" class="a"/><path d="m163.5 100.5v4.8" class="a"/><path d="m202.9 100.5v4.8" class="a"/><use x="40.7" y="117.6" width="100" height="100" xlink:href="#glyph0-0"/><use x="45.1" y="117.6" width="100" height="100" xlink:href="#glyph0-1"/><use x="80.2" y="117.6" width="100" height="100" xlink:href="#glyph0-0"/><use x="84.6" y="117.6" width="100" height="100" xlink:href="#glyph0-2"/><use x="119.6" y="117.6" width="100" height="100" xlink:href="#glyph0-3"/><use x="124" y="117.6" width="100" height="100" xlink:href="#glyph0-1"/><use x="159.1" y="117.6" width="100" height="100" xlink:href="#glyph0-3"/><use x="163.5" y="117.6" width="100" height="100" xlink:href="#glyph0-2"/><use x="198.5" y="117.6" width="100" height="100" xlink:href="#glyph0-4"/><use x="202.9" y="117.6" width="100" height="100" xlink:href="#glyph0-1"/><path d="M39 97.5V42.6" class="a"/><path d="m39 97.5h-4.7" class="a"/><path d="m39 86.5h-4.7" class="a"/><path d="m39 75.5h-4.7" class="a"/><path d="m39 64.6h-4.7" class="a"/><path d="m39 53.6h-4.7" class="a"/><path d="m39 42.6h-4.7" class="a"/><use x="27.6" y="101" width="100" height="100" xlink:href="#glyph1-0"/><use x="27.6" y="98.4" width="100" height="100" xlink:href="#glyph1-1"/><use x="27.6" y="77.7" width="100" height="100" xlink:href="#glyph1-2"/><use x="27.6" y="55.8" width="100" height="100" xlink:href="#glyph1-1"/><path d="M39 100.5H205V39H39v61.6" class="a"/><g CLIP-PATH="url("#clip1")"><use x="99.6" y="136.6" width="100" height="100" xlink:href="#glyph0-5"/><use x="104.4" y="136.6" width="100" height="100" xlink:href="#glyph0-6"/><use x="106.2" y="136.6" width="100" height="100" xlink:href="#glyph0-7"/><use x="108.4" y="136.6" width="100" height="100" xlink:href="#glyph0-7"/><use x="110.6" y="136.6" width="100" height="100" xlink:href="#glyph0-8"/><use x="115" y="136.6" width="100" height="100" xlink:href="#glyph0-9"/><use x="119.4" y="136.6" width="100" height="100" xlink:href="#glyph0-10"/><use x="121.6" y="136.6" width="100" height="100" xlink:href="#glyph0-11"/><use x="125.5" y="136.6" width="100" height="100" xlink:href="#glyph0-12"/><use x="129.9" y="136.6" width="100" height="100" xlink:href="#glyph0-13"/><use x="131.7" y="136.6" width="100" height="100" xlink:href="#glyph0-14"/><use x="136.1" y="136.6" width="100" height="100" xlink:href="#glyph0-8"/><use x="140.5" y="136.6" width="100" height="100" xlink:href="#glyph0-15"/><use x="8.6" y="87.1" width="100" height="100" xlink:href="#glyph1-3"/><use x="8.6" y="81.4" width="100" height="100" xlink:href="#glyph1-4"/><use x="8.6" y="77" width="100" height="100" xlink:href="#glyph1-5"/><use x="8.6" y="73.1" width="100" height="100" xlink:href="#glyph1-6"/><use x="8.6" y="71.3" width="100" height="100" xlink:href="#glyph1-7"/><use x="8.6" y="66.9" width="100" height="100" xlink:href="#glyph1-8"/><use x="8.6" y="62.5" width="100" height="100" xlink:href="#glyph1-9"/><use x="8.6" y="58.1" width="100" height="100" xlink:href="#glyph1-10"/><use x="8.6" y="56.3" width="100" height="100" xlink:href="#glyph1-5"/></g><g CLIP-PATH="url("#clip2")"><path d="m160.7 94.3c0 2.4-3.6 2.4-3.6 0 0-2.4 3.6-2.4 3.6 0" class="a"/><path d="m154.9 90.3c0 2.4-3.6 2.4-3.6 0 0-2.4 3.6-2.4 3.6 0" class="a"/><path d="m172.5 92.7c0 2.4-3.6 2.4-3.6 0 0-2.4 3.6-2.4 3.6 0" class="a"/><path d="m130.8 71.3c0 2.4-3.6 2.4-3.6 0 0-2.4 3.6-2.4 3.6 0" class="a"/><path d="m106.4 69.2c0 2.4-3.6 2.4-3.6 0 0-2.4 3.6-2.4 3.6 0" class="a"/><path d="m126.7 86.6c0 2.4-3.6 2.4-3.6 0 0-2.4 3.6-2.4 3.6 0" class="a"/><path d="m82.8 76.9c0 2.4-3.6 2.4-3.6 0 0-2.4 3.6-2.4 3.6 0" class="a"/><path d="m145.5 65.1c0 2.4-3.6 2.4-3.6 0 0-2.4 3.6-2.4 3.6 0" class="a"/><path d="m136.7 67.7c0 2.4-3.6 2.4-3.6 0 0-2.4 3.6-2.4 3.6 0" class="a"/><path d="m121.8 77.1c0 2.4-3.6 2.4-3.6 0 0-2.4 3.6-2.4 3.6 0" class="a"/><path d="m121.8 84.8c0 2.4-3.6 2.4-3.6 0 0-2.4 3.6-2.4 3.6 0" class="a"/><path d="m90.6 70.8c0 2.4-3.6 2.4-3.6 0 0-2.4 3.6-2.4 3.6 0" class="a"/><path d="m98.4 71.3c0 2.4-3.6 2.4-3.6 0 0-2.4 3.6-2.4 3.6 0" class="a"/><path d="m97.2 82c0 2.4-3.6 2.4-3.6 0 0-2.4 3.6-2.4 3.6 0" class="a"/><path d="m56.4 80c0 2.4-3.6 2.4-3.6 0 0-2.4 3.6-2.4 3.6 0" class="a"/><path d="m49.5 75.2c0 2.4-3.6 2.4-3.6 0 0-2.4 3.6-2.4 3.6 0" class="a"/><path d="m46.9 49.7c0 2.4-3.6 2.4-3.6 0 0-2.4 3.6-2.4 3.6 0" class="a"/><path d="m183.3 47.4c0 2.4-3.6 2.4-3.6 0 0-2.4 3.6-2.4 3.6 0" class="a"/><path d="m200.7 70.5c0 2.4-3.6 2.4-3.6 0 0-2.4 3.6-2.4 3.6 0" class="a"/><path d="m191.8 45.2c0 2.4-3.6 2.4-3.6 0 0-2.4 3.6-2.4 3.6 0" class="a"/><path d="m151.6 85.3c0 2.4-3.6 2.4-3.6 0 0-2.4 3.6-2.4 3.6 0" class="a"/><path d="m112 90.6c0 2.4-3.6 2.4-3.6 0 0-2.4 3.6-2.4 3.6 0" class="a"/><path d="m113.9 93.6c0 2.4-3.6 2.4-3.6 0 0-2.4 3.6-2.4 3.6 0" class="a"/><path d="m76.6 78.1c0 2.4-3.6 2.4-3.6 0 0-2.4 3.6-2.4 3.6 0" class="a"/><path d="m97.2 60c0 2.4-3.6 2.4-3.6 0 0-2.4 3.6-2.4 3.6 0" class="a"/><path d="m189.3 79.6c0 2.4-3.6 2.4-3.6 0 0-2.4 3.6-2.4 3.6 0" class="a"/><path d="m177.2 78.4c0 2.4-3.6 2.4-3.6 0 0-2.4 3.6-2.4 3.6 0" class="a"/><path d="m185 59.6c0 2.4-3.6 2.4-3.6 0 0-2.4 3.6-2.4 3.6 0" class="a"/><path d="m102.7 82.5c0 2.4-3.6 2.4-3.6 0 0-2.4 3.6-2.4 3.6 0" class="a"/><path d="m138.1 85.7c0 2.4-3.6 2.4-3.6 0 0-2.4 3.6-2.4 3.6 0" class="a"/><path d="m72.6 66c0 2.4-3.6 2.4-3.6 0 0-2.4 3.6-2.4 3.6 0" class="a"/><path d="m157.4 89.8c0 2.4-3.6 2.4-3.6 0 0-2.4 3.6-2.4 3.6 0" class="a"/><path d="m45.1 66.8l2.6 0.5 6.9 1.3 16.2 3.2 4 0.8 6.1 1.3 7.9 1.5 6.6 0.9 1.1 0.2 4.3 0.6 3.7 0.5 5.6 0.7 1.9 0.2 7.9 0.8 4.9 0.9 4.1 0.8 5.9 1 1.4 0.2 7.4 0.3 6.1-1.6 3.3-0.8 2.5-1L158.9 78l11.8-3.4 4.7-1.3 6-1.8 1.7-0.5 4.3-1.4 2.6-0.9 8.8-3.3" class="b"/></g><use x="71.3" y="34.7" width="100" height="100" xlink:href="#glyph2-0"/><use x="80" y="34.7" width="100" height="100" xlink:href="#glyph2-1"/><use x="86.7" y="34.7" width="100" height="100" xlink:href="#glyph2-2"/><use x="92.7" y="34.7" width="100" height="100" xlink:href="#glyph2-3"/><use x="95.3" y="34.7" width="100" height="100" xlink:href="#glyph2-4"/><use x="102" y="34.7" width="100" height="100" xlink:href="#glyph2-5"/><use x="108.7" y="34.7" width="100" height="100" xlink:href="#glyph2-6"/><use x="115.3" y="34.7" width="100" height="100" xlink:href="#glyph2-7"/><use x="118" y="34.7" width="100" height="100" xlink:href="#glyph2-2"/><use x="124" y="34.7" width="100" height="100" xlink:href="#glyph2-8"/><use x="127.3" y="34.7" width="100" height="100" xlink:href="#glyph2-9"/><use x="133.3" y="34.7" width="100" height="100" xlink:href="#glyph2-2"/><use x="139.3" y="34.7" width="100" height="100" xlink:href="#glyph2-8"/><use x="142.7" y="34.7" width="100" height="100" xlink:href="#glyph2-10"/><use x="150" y="34.7" width="100" height="100" xlink:href="#glyph2-3"/><use x="152.7" y="34.7" width="100" height="100" xlink:href="#glyph2-11"/><use x="156" y="34.7" width="100" height="100" xlink:href="#glyph2-11"/><use x="159.3" y="34.7" width="100" height="100" xlink:href="#glyph2-1"/><use x="166" y="34.7" width="100" height="100" xlink:href="#glyph2-4"/><g CLIP-PATH="url("#clip3")"><use x="181.1" y="46.6" width="100" height="100" xlink:href="#glyph3-0"/><use x="184.4" y="46.6" width="100" height="100" xlink:href="#glyph3-1"/><use x="172.5" y="48.9" width="100" height="100" xlink:href="#glyph3-2"/><use x="175.8" y="48.9" width="100" height="100" xlink:href="#glyph3-3"/><use x="47.5" y="51.1" width="100" height="100" xlink:href="#glyph3-2"/><use x="50.8" y="51.1" width="100" height="100" xlink:href="#glyph3-4"/></g><g CLIP-PATH="url("#clip4")"><path d="M39 75.5H205" class="c"/></g><g CLIP-PATH="url("#clip5")"><path d="m271.9 98.3c0 2.4-3.6 2.4-3.6 0 0-2.4 3.6-2.4 3.6 0" class="a"/><path d="m304.9 94.2c0 2.4-3.6 2.4-3.6 0 0-2.4 3.6-2.4 3.6 0" class="a"/><path d="m298.2 96.4c0 2.4-3.6 2.4-3.6 0 0-2.4 3.6-2.4 3.6 0" class="a"/><path d="m361.6 73.6c0 2.4-3.6 2.4-3.6 0 0-2.4 3.6-2.4 3.6 0" class="a"/><path d="m371.1 71.3c0 2.4-3.6 2.4-3.6 0 0-2.4 3.6-2.4 3.6 0" class="a"/><path d="m319.1 89.8c0 2.4-3.6 2.4-3.6 0 0-2.4 3.6-2.4 3.6 0" class="a"/><path d="m353 79.6c0 2.4-3.6 2.4-3.6 0 0-2.4 3.6-2.4 3.6 0" class="a"/><path d="m378.4 66.6c0 2.4-3.6 2.4-3.6 0 0-2.4 3.6-2.4 3.6 0" class="a"/><path d="m374.6 69.7c0 2.4-3.6 2.4-3.6 0 0-2.4 3.6-2.4 3.6 0" class="a"/><path d="m350.2 79.8c0 2.4-3.6 2.4-3.6 0 0-2.4 3.6-2.4 3.6 0" class="a"/><path d="m329.7 87.9c0 2.4-3.6 2.4-3.6 0 0-2.4 3.6-2.4 3.6 0" class="a"/><path d="m364.7 73.1c0 2.4-3.6 2.4-3.6 0 0-2.4 3.6-2.4 3.6 0" class="a"/><path d="m358.7 73.6c0 2.4-3.6 2.4-3.6 0 0-2.4 3.6-2.4 3.6 0" class="a"/><path d="m335.9 84.9c0 2.4-3.6 2.4-3.6 0 0-2.4 3.6-2.4 3.6 0" class="a"/><path d="m338.9 83.3c0 2.4-3.6 2.4-3.6 0 0-2.4 3.6-2.4 3.6 0" class="a"/><path d="m355.8 77.6c0 2.4-3.6 2.4-3.6 0 0-2.4 3.6-2.4 3.6 0" class="a"/><path d="m399.4 48c0 2.4-3.6 2.4-3.6 0 0-2.4 3.6-2.4 3.6 0" class="a"/><path d="m408.6 47.6c0 2.4-3.6 2.4-3.6 0 0-2.4 3.6-2.4 3.6 0" class="a"/><path d="m367.8 72.6c0 2.4-3.6 2.4-3.6 0 0-2.4 3.6-2.4 3.6 0" class="a"/><path d="m425.7 45.2c0 2.4-3.6 2.4-3.6 0 0-2.4 3.6-2.4 3.6 0" class="a"/><path d="m326.4 89c0 2.4-3.6 2.4-3.6 0 0-2.4 3.6-2.4 3.6 0" class="a"/><path d="m310.3 94c0 2.4-3.6 2.4-3.6 0 0-2.4 3.6-2.4 3.6 0" class="a"/><path d="m289 97.2c0 2.4-3.6 2.4-3.6 0 0-2.4 3.6-2.4 3.6 0" class="a"/><path d="m347.4 80.9c0 2.4-3.6 2.4-3.6 0 0-2.4 3.6-2.4 3.6 0" class="a"/><path d="m387.3 61.8c0 2.4-3.6 2.4-3.6 0 0-2.4 3.6-2.4 3.6 0" class="a"/><path d="m341.8 82.5c0 2.4-3.6 2.4-3.6 0 0-2.4 3.6-2.4 3.6 0" class="a"/><path d="m344.6 81.1c0 2.4-3.6 2.4-3.6 0 0-2.4 3.6-2.4 3.6 0" class="a"/><path d="m392.7 60.3c0 2.4-3.6 2.4-3.6 0 0-2.4 3.6-2.4 3.6 0" class="a"/><path d="m332.9 86.1c0 2.4-3.6 2.4-3.6 0 0-2.4 3.6-2.4 3.6 0" class="a"/><path d="m322.9 89c0 2.4-3.6 2.4-3.6 0 0-2.4 3.6-2.4 3.6 0" class="a"/><path d="m382.6 65.3c0 2.4-3.6 2.4-3.6 0 0-2.4 3.6-2.4 3.6 0" class="a"/><path d="m315 93.6c0 2.4-3.6 2.4-3.6 0 0-2.4 3.6-2.4 3.6 0" class="a"/></g><path d="M275.6 100.5H418.4" class="a"/><path d="m275.6 100.5v4.8" class="a"/><path d="m311.3 100.5v4.8" class="a"/><path d="m347 100.5v4.8" class="a"/><path d="m382.7 100.5v4.8" class="a"/><path d="m418.4 100.5v4.8" class="a"/><use x="272.1" y="117.6" width="100" height="100" xlink:href="#glyph0-16"/><use x="274.7" y="117.6" width="100" height="100" xlink:href="#glyph0-3"/><use x="307.8" y="117.6" width="100" height="100" xlink:href="#glyph0-16"/><use x="310.4" y="117.6" width="100" height="100" xlink:href="#glyph0-0"/><use x="344.8" y="117.6" width="100" height="100" xlink:href="#glyph0-1"/><use x="380.5" y="117.6" width="100" height="100" xlink:href="#glyph0-0"/><use x="416.2" y="117.6" width="100" height="100" xlink:href="#glyph0-3"/><path d="M264 92.3V49.6" class="a"/><path d="m264 92.3h-4.7" class="a"/><path d="m264 78.1h-4.7" class="a"/><path d="m264 63.8h-4.7" class="a"/><path d="m264 49.6h-4.7" class="a"/><use x="252.6" y="95.8" width="100" height="100" xlink:href="#glyph1-0"/><use x="252.6" y="93.2" width="100" height="100" xlink:href="#glyph1-11"/><use x="252.6" y="80.3" width="100" height="100" xlink:href="#glyph1-2"/><use x="252.6" y="66" width="100" height="100" xlink:href="#glyph1-11"/><use x="252.6" y="51.8" width="100" height="100" xlink:href="#glyph1-12"/><path d="M264 100.5H430V39H264v61.6" class="a"/><g CLIP-PATH="url("#clip6")"><use x="309.6" y="136.6" width="100" height="100" xlink:href="#glyph0-17"/><use x="314.4" y="136.6" width="100" height="100" xlink:href="#glyph0-18"/><use x="318.8" y="136.6" width="100" height="100" xlink:href="#glyph0-8"/><use x="323.2" y="136.6" width="100" height="100" xlink:href="#glyph0-19"/><use x="327.6" y="136.6" width="100" height="100" xlink:href="#glyph0-20"/><use x="330.3" y="136.6" width="100" height="100" xlink:href="#glyph0-8"/><use x="334.7" y="136.6" width="100" height="100" xlink:href="#glyph0-7"/><use x="336.9" y="136.6" width="100" height="100" xlink:href="#glyph0-6"/><use x="338.6" y="136.6" width="100" height="100" xlink:href="#glyph0-21"/><use x="342.6" y="136.6" width="100" height="100" xlink:href="#glyph0-12"/><use x="347" y="136.6" width="100" height="100" xlink:href="#glyph0-13"/><use x="348.8" y="136.6" width="100" height="100" xlink:href="#glyph0-10"/><use x="351" y="136.6" width="100" height="100" xlink:href="#glyph0-22"/><use x="357.1" y="136.6" width="100" height="100" xlink:href="#glyph0-14"/><use x="361.5" y="136.6" width="100" height="100" xlink:href="#glyph0-12"/><use x="365.9" y="136.6" width="100" height="100" xlink:href="#glyph0-23"/><use x="370.3" y="136.6" width="100" height="100" xlink:href="#glyph0-7"/><use x="372.5" y="136.6" width="100" height="100" xlink:href="#glyph0-6"/><use x="374.3" y="136.6" width="100" height="100" xlink:href="#glyph0-13"/><use x="376.1" y="136.6" width="100" height="100" xlink:href="#glyph0-8"/><use x="380.5" y="136.6" width="100" height="100" xlink:href="#glyph0-15"/><use x="233.6" y="110" width="100" height="100" xlink:href="#glyph1-13"/><use x="233.6" y="104.7" width="100" height="100" xlink:href="#glyph1-14"/><use x="233.6" y="102.5" width="100" height="100" xlink:href="#glyph1-9"/><use x="233.6" y="98.1" width="100" height="100" xlink:href="#glyph1-15"/><use x="233.6" y="93.7" width="100" height="100" xlink:href="#glyph1-7"/><use x="233.6" y="89.3" width="100" height="100" xlink:href="#glyph1-9"/><use x="233.6" y="84.9" width="100" height="100" xlink:href="#glyph1-16"/><use x="233.6" y="82.3" width="100" height="100" xlink:href="#glyph1-7"/><use x="233.6" y="77.9" width="100" height="100" xlink:href="#glyph1-6"/><use x="233.6" y="76.1" width="100" height="100" xlink:href="#glyph1-17"/><use x="233.6" y="72.2" width="100" height="100" xlink:href="#glyph1-4"/><use x="233.6" y="67.8" width="100" height="100" xlink:href="#glyph1-7"/><use x="233.6" y="63.4" width="100" height="100" xlink:href="#glyph1-18"/><use x="233.6" y="61.2" width="100" height="100" xlink:href="#glyph1-16"/><use x="233.6" y="58.5" width="100" height="100" xlink:href="#glyph1-4"/><use x="233.6" y="54.1" width="100" height="100" xlink:href="#glyph1-5"/><use x="233.6" y="50.2" width="100" height="100" xlink:href="#glyph1-6"/><use x="233.6" y="48.4" width="100" height="100" xlink:href="#glyph1-7"/><use x="233.6" y="44" width="100" height="100" xlink:href="#glyph1-8"/><use x="233.6" y="39.6" width="100" height="100" xlink:href="#glyph1-9"/><use x="233.6" y="35.2" width="100" height="100" xlink:href="#glyph1-10"/><use x="233.6" y="33.4" width="100" height="100" xlink:href="#glyph1-5"/></g><g CLIP-PATH="url("#clip7")"><path d="M264 111.2L430 48.8" style="fill:none;stroke-dasharray:0.8;stroke-linejoin:round;stroke-width:0.8;stroke:#7d7d7d"/></g><use x="314.7" y="34.7" width="100" height="100" xlink:href="#glyph2-12"/><use x="323.3" y="34.7" width="100" height="100" xlink:href="#glyph2-13"/><use x="330" y="34.7" width="100" height="100" xlink:href="#glyph2-14"/><use x="334" y="34.7" width="100" height="100" xlink:href="#glyph2-15"/><use x="344" y="34.7" width="100" height="100" xlink:href="#glyph2-6"/><use x="350.7" y="34.7" width="100" height="100" xlink:href="#glyph2-7"/><use x="353.3" y="34.7" width="100" height="100" xlink:href="#glyph2-8"/><use x="356.7" y="34.7" width="100" height="100" xlink:href="#glyph2-16"/><use x="366" y="34.7" width="100" height="100" xlink:href="#glyph2-17"/><use x="370" y="34.7" width="100" height="100" xlink:href="#glyph2-16"/><g CLIP-PATH="url("#clip8")"><use x="414.9" y="46.6" width="100" height="100" xlink:href="#glyph3-0"/><use x="418.2" y="46.6" width="100" height="100" xlink:href="#glyph3-1"/><use x="409.2" y="49" width="100" height="100" xlink:href="#glyph3-2"/><use x="412.5" y="49" width="100" height="100" xlink:href="#glyph3-3"/><use x="400" y="49.4" width="100" height="100" xlink:href="#glyph3-2"/><use x="403.3" y="49.4" width="100" height="100" xlink:href="#glyph3-4"/></g><path d="M495.1 100.5H652.9" class="a"/><path d="m495.1 100.5v4.8" class="a"/><path d="m534.6 100.5v4.8" class="a"/><path d="m574 100.5v4.8" class="a"/><path d="m613.5 100.5v4.8" class="a"/><path d="m652.9 100.5v4.8" class="a"/><use x="490.7" y="117.6" width="100" height="100" xlink:href="#glyph0-0"/><use x="495.1" y="117.6" width="100" height="100" xlink:href="#glyph0-1"/><use x="530.2" y="117.6" width="100" height="100" xlink:href="#glyph0-0"/><use x="534.6" y="117.6" width="100" height="100" xlink:href="#glyph0-2"/><use x="569.6" y="117.6" width="100" height="100" xlink:href="#glyph0-3"/><use x="574" y="117.6" width="100" height="100" xlink:href="#glyph0-1"/><use x="609.1" y="117.6" width="100" height="100" xlink:href="#glyph0-3"/><use x="613.5" y="117.6" width="100" height="100" xlink:href="#glyph0-2"/><use x="648.5" y="117.6" width="100" height="100" xlink:href="#glyph0-4"/><use x="652.9" y="117.6" width="100" height="100" xlink:href="#glyph0-1"/><path d="M489 98.3V41.9" class="a"/><path d="m489 98.3h-4.7" class="a"/><path d="m489 79.5h-4.7" class="a"/><path d="m489 60.7h-4.7" class="a"/><path d="m489 41.9h-4.7" class="a"/><use x="477.6" y="103.8" width="100" height="100" xlink:href="#glyph1-2"/><use x="477.6" y="99.3" width="100" height="100" xlink:href="#glyph1-19"/><use x="477.6" y="97.1" width="100" height="100" xlink:href="#glyph1-2"/><use x="477.6" y="85" width="100" height="100" xlink:href="#glyph1-2"/><use x="477.6" y="80.6" width="100" height="100" xlink:href="#glyph1-19"/><use x="477.6" y="78.4" width="100" height="100" xlink:href="#glyph1-20"/><use x="477.6" y="66.2" width="100" height="100" xlink:href="#glyph1-11"/><use x="477.6" y="61.8" width="100" height="100" xlink:href="#glyph1-19"/><use x="477.6" y="59.6" width="100" height="100" xlink:href="#glyph1-2"/><use x="477.6" y="47.4" width="100" height="100" xlink:href="#glyph1-11"/><use x="477.6" y="43" width="100" height="100" xlink:href="#glyph1-19"/><use x="477.6" y="40.8" width="100" height="100" xlink:href="#glyph1-20"/><path d="M489 100.5H655V39H489v61.6" class="a"/><g CLIP-PATH="url("#clip9")"><use x="549.6" y="136.6" width="100" height="100" xlink:href="#glyph0-5"/><use x="554.4" y="136.6" width="100" height="100" xlink:href="#glyph0-6"/><use x="556.2" y="136.6" width="100" height="100" xlink:href="#glyph0-7"/><use x="558.4" y="136.6" width="100" height="100" xlink:href="#glyph0-7"/><use x="560.6" y="136.6" width="100" height="100" xlink:href="#glyph0-8"/><use x="565" y="136.6" width="100" height="100" xlink:href="#glyph0-9"/><use x="569.4" y="136.6" width="100" height="100" xlink:href="#glyph0-10"/><use x="571.6" y="136.6" width="100" height="100" xlink:href="#glyph0-11"/><use x="575.5" y="136.6" width="100" height="100" xlink:href="#glyph0-12"/><use x="579.9" y="136.6" width="100" height="100" xlink:href="#glyph0-13"/><use x="581.7" y="136.6" width="100" height="100" xlink:href="#glyph0-14"/><use x="586.1" y="136.6" width="100" height="100" xlink:href="#glyph0-8"/><use x="590.5" y="136.6" width="100" height="100" xlink:href="#glyph0-15"/><path d="m456.2 113.2l-0.6-1 2.9-1 -7.5-1.4V26.6" class="a"/><path d="m458.6 108.7h-5.9" class="a"/><use x="458.5" y="108.3" width="100" height="100" xlink:href="#glyph1-13"/><use x="458.5" y="103" width="100" height="100" xlink:href="#glyph1-14"/><use x="458.5" y="100.8" width="100" height="100" xlink:href="#glyph1-9"/><use x="458.5" y="96.4" width="100" height="100" xlink:href="#glyph1-15"/><use x="458.5" y="92" width="100" height="100" xlink:href="#glyph1-7"/><use x="458.5" y="87.6" width="100" height="100" xlink:href="#glyph1-9"/><use x="458.5" y="83.2" width="100" height="100" xlink:href="#glyph1-16"/><use x="458.5" y="80.5" width="100" height="100" xlink:href="#glyph1-7"/><use x="458.5" y="76.1" width="100" height="100" xlink:href="#glyph1-6"/><use x="458.5" y="74.4" width="100" height="100" xlink:href="#glyph1-17"/><use x="458.5" y="70.4" width="100" height="100" xlink:href="#glyph1-4"/><use x="458.5" y="66" width="100" height="100" xlink:href="#glyph1-7"/><use x="458.5" y="61.6" width="100" height="100" xlink:href="#glyph1-18"/><use x="458.5" y="59.4" width="100" height="100" xlink:href="#glyph1-16"/><use x="458.5" y="56.8" width="100" height="100" xlink:href="#glyph1-4"/><use x="458.5" y="52.4" width="100" height="100" xlink:href="#glyph1-5"/><use x="458.5" y="48.4" width="100" height="100" xlink:href="#glyph1-6"/><use x="458.5" y="46.7" width="100" height="100" xlink:href="#glyph1-7"/><use x="458.5" y="42.2" width="100" height="100" xlink:href="#glyph1-8"/><use x="458.5" y="37.8" width="100" height="100" xlink:href="#glyph1-9"/><use x="458.5" y="33.4" width="100" height="100" xlink:href="#glyph1-10"/><use x="458.5" y="31.7" width="100" height="100" xlink:href="#glyph1-5"/><path d="m458.6 27.4h-5.9" class="a"/></g><g CLIP-PATH="url("#clip10")"><path d="m610.7 53.6c0 2.4-3.6 2.4-3.6 0 0-2.4 3.6-2.4 3.6 0" class="a"/><path d="m604.9 58.3c0 2.4-3.6 2.4-3.6 0 0-2.4 3.6-2.4 3.6 0" class="a"/><path d="m622.5 55.6c0 2.4-3.6 2.4-3.6 0 0-2.4 3.6-2.4 3.6 0" class="a"/><path d="m580.8 77.1c0 2.4-3.6 2.4-3.6 0 0-2.4 3.6-2.4 3.6 0" class="a"/><path d="m556.4 72.4c0 2.4-3.6 2.4-3.6 0 0-2.4 3.6-2.4 3.6 0" class="a"/><path d="m576.7 64.2c0 2.4-3.6 2.4-3.6 0 0-2.4 3.6-2.4 3.6 0" class="a"/><path d="m532.8 86c0 2.4-3.6 2.4-3.6 0 0-2.4 3.6-2.4 3.6 0" class="a"/><path d="m595.5 64.6c0 2.4-3.6 2.4-3.6 0 0-2.4 3.6-2.4 3.6 0" class="a"/><path d="m586.7 69.5c0 2.4-3.6 2.4-3.6 0 0-2.4 3.6-2.4 3.6 0" class="a"/><path d="m571.8 85.3c0 2.4-3.6 2.4-3.6 0 0-2.4 3.6-2.4 3.6 0" class="a"/><path d="m571.8 67.1c0 2.4-3.6 2.4-3.6 0 0-2.4 3.6-2.4 3.6 0" class="a"/><path d="m540.6 76.1c0 2.4-3.6 2.4-3.6 0 0-2.4 3.6-2.4 3.6 0" class="a"/><path d="m548.4 77.1c0 2.4-3.6 2.4-3.6 0 0-2.4 3.6-2.4 3.6 0" class="a"/><path d="m547.2 72.3c0 2.4-3.6 2.4-3.6 0 0-2.4 3.6-2.4 3.6 0" class="a"/><path d="m506.4 75.6c0 2.4-3.6 2.4-3.6 0 0-2.4 3.6-2.4 3.6 0" class="a"/><path d="m499.5 91.6c0 2.4-3.6 2.4-3.6 0 0-2.4 3.6-2.4 3.6 0" class="a"/><path d="m496.9 43.7c0 2.4-3.6 2.4-3.6 0 0-2.4 3.6-2.4 3.6 0" class="a"/><path d="m633.3 43.3c0 2.4-3.6 2.4-3.6 0 0-2.4 3.6-2.4 3.6 0" class="a"/><path d="m650.7 75c0 2.4-3.6 2.4-3.6 0 0-2.4 3.6-2.4 3.6 0" class="a"/><path d="m641.8 41.2c0 2.4-3.6 2.4-3.6 0 0-2.4 3.6-2.4 3.6 0" class="a"/><path d="m601.6 65.4c0 2.4-3.6 2.4-3.6 0 0-2.4 3.6-2.4 3.6 0" class="a"/><path d="m562 58.6c0 2.4-3.6 2.4-3.6 0 0-2.4 3.6-2.4 3.6 0" class="a"/><path d="m563.9 54.8c0 2.4-3.6 2.4-3.6 0 0-2.4 3.6-2.4 3.6 0" class="a"/><path d="m526.6 81.5c0 2.4-3.6 2.4-3.6 0 0-2.4 3.6-2.4 3.6 0" class="a"/><path d="m547.2 58.1c0 2.4-3.6 2.4-3.6 0 0-2.4 3.6-2.4 3.6 0" class="a"/><path d="m639.3 77.4c0 2.4-3.6 2.4-3.6 0 0-2.4 3.6-2.4 3.6 0" class="a"/><path d="m627.2 80.9c0 2.4-3.6 2.4-3.6 0 0-2.4 3.6-2.4 3.6 0" class="a"/><path d="m635 56.3c0 2.4-3.6 2.4-3.6 0 0-2.4 3.6-2.4 3.6 0" class="a"/><path d="m552.7 70c0 2.4-3.6 2.4-3.6 0 0-2.4 3.6-2.4 3.6 0" class="a"/><path d="m588.1 65.4c0 2.4-3.6 2.4-3.6 0 0-2.4 3.6-2.4 3.6 0" class="a"/><path d="m522.6 62.7c0 2.4-3.6 2.4-3.6 0 0-2.4 3.6-2.4 3.6 0" class="a"/><path d="m607.4 59.1c0 2.4-3.6 2.4-3.6 0 0-2.4 3.6-2.4 3.6 0" class="a"/><path d="m495.1 84.1l2.6-0.7 6.9-1.7 16.2-4.1 4-1.1 6.1-1.6 7.9-2 6.6-1.2 1.1-0.2 4.3-0.6 3.7-0.5 5.6-0.9 1.9-0.4 7.9-1.2 4.9-0.9 4.1-0.7 5.9-1 1.4-0.2 7.4-1.3 6.1-1 3.3-0.6 2.5-0.3 3.3-0.4 11.8-0.9 4.7-0.3L631.5 60l1.7-0.1 4.3-0.2 2.6-0.1 8.8-0.3" class="b"/></g><use x="532.3" y="34.7" width="100" height="100" xlink:href="#glyph2-18"/><use x="540.3" y="34.7" width="100" height="100" xlink:href="#glyph2-19"/><use x="546.3" y="34.7" width="100" height="100" xlink:href="#glyph2-6"/><use x="553" y="34.7" width="100" height="100" xlink:href="#glyph2-7"/><use x="555.7" y="34.7" width="100" height="100" xlink:href="#glyph2-1"/><use x="562.3" y="34.7" width="100" height="100" xlink:href="#glyph2-17"/><use x="566.3" y="34.7" width="100" height="100" xlink:href="#glyph2-20"/><use x="573" y="34.7" width="100" height="100" xlink:href="#glyph2-13"/><use x="579.7" y="34.7" width="100" height="100" xlink:href="#glyph2-19"/><use x="585.7" y="34.7" width="100" height="100" xlink:href="#glyph2-6"/><use x="592.3" y="34.7" width="100" height="100" xlink:href="#glyph2-11"/><use x="595.7" y="34.7" width="100" height="100" xlink:href="#glyph2-3"/><use x="598.3" y="34.7" width="100" height="100" xlink:href="#glyph2-13"/><use x="605" y="34.7" width="100" height="100" xlink:href="#glyph2-21"/><g CLIP-PATH="url("#clip11")"><use x="631.1" y="42.7" width="100" height="100" xlink:href="#glyph3-0"/><use x="634.4" y="42.7" width="100" height="100" xlink:href="#glyph3-1"/><use x="622.5" y="44.8" width="100" height="100" xlink:href="#glyph3-2"/><use x="625.8" y="44.8" width="100" height="100" xlink:href="#glyph3-3"/><use x="497.5" y="45.1" width="100" height="100" xlink:href="#glyph3-2"/><use x="500.8" y="45.1" width="100" height="100" xlink:href="#glyph3-4"/></g><path d="M720.1 100.5H869.3" class="a"/><path d="m720.1 100.5v4.8" class="a"/><path d="m757.4 100.5v4.8" class="a"/><path d="m794.7 100.5v4.8" class="a"/><path d="m832 100.5v4.8" class="a"/><path d="m869.3 100.5v4.8" class="a"/><use x="714.6" y="117.6" width="100" height="100" xlink:href="#glyph0-1"/><use x="719" y="117.6" width="100" height="100" xlink:href="#glyph0-24"/><use x="721.2" y="117.6" width="100" height="100" xlink:href="#glyph0-1"/><use x="751.9" y="117.6" width="100" height="100" xlink:href="#glyph0-1"/><use x="756.3" y="117.6" width="100" height="100" xlink:href="#glyph0-24"/><use x="758.5" y="117.6" width="100" height="100" xlink:href="#glyph0-0"/><use x="789.2" y="117.6" width="100" height="100" xlink:href="#glyph0-1"/><use x="793.6" y="117.6" width="100" height="100" xlink:href="#glyph0-24"/><use x="795.8" y="117.6" width="100" height="100" xlink:href="#glyph0-3"/><use x="826.5" y="117.6" width="100" height="100" xlink:href="#glyph0-1"/><use x="830.9" y="117.6" width="100" height="100" xlink:href="#glyph0-24"/><use x="833.1" y="117.6" width="100" height="100" xlink:href="#glyph0-4"/><use x="863.8" y="117.6" width="100" height="100" xlink:href="#glyph0-1"/><use x="868.2" y="117.6" width="100" height="100" xlink:href="#glyph0-24"/><use x="870.4" y="117.6" width="100" height="100" xlink:href="#glyph0-25"/><path d="M714 88.8V49.2" class="a"/><path d="m714 88.8h-4.7" class="a"/><path d="m714 75.6h-4.7" class="a"/><path d="m714 62.4h-4.7" class="a"/><path d="m714 49.2h-4.7" class="a"/><use x="702.6" y="92.3" width="100" height="100" xlink:href="#glyph1-0"/><use x="702.6" y="89.7" width="100" height="100" xlink:href="#glyph1-11"/><use x="702.6" y="77.8" width="100" height="100" xlink:href="#glyph1-2"/><use x="702.6" y="64.6" width="100" height="100" xlink:href="#glyph1-11"/><use x="702.6" y="51.4" width="100" height="100" xlink:href="#glyph1-12"/><path d="M714 100.5H880V39H714v61.6" class="a"/><g CLIP-PATH="url("#clip12")"><use x="780.5" y="136.6" width="100" height="100" xlink:href="#glyph0-26"/><use x="784.9" y="136.6" width="100" height="100" xlink:href="#glyph0-8"/><use x="789.3" y="136.6" width="100" height="100" xlink:href="#glyph0-11"/><use x="793.3" y="136.6" width="100" height="100" xlink:href="#glyph0-8"/><use x="797.7" y="136.6" width="100" height="100" xlink:href="#glyph0-20"/><use x="800.3" y="136.6" width="100" height="100" xlink:href="#glyph0-12"/><use x="804.7" y="136.6" width="100" height="100" xlink:href="#glyph0-27"/><use x="809.1" y="136.6" width="100" height="100" xlink:href="#glyph0-8"/><use x="683.6" y="110" width="100" height="100" xlink:href="#glyph1-13"/><use x="683.6" y="104.7" width="100" height="100" xlink:href="#glyph1-14"/><use x="683.6" y="102.5" width="100" height="100" xlink:href="#glyph1-9"/><use x="683.6" y="98.1" width="100" height="100" xlink:href="#glyph1-15"/><use x="683.6" y="93.7" width="100" height="100" xlink:href="#glyph1-7"/><use x="683.6" y="89.3" width="100" height="100" xlink:href="#glyph1-9"/><use x="683.6" y="84.9" width="100" height="100" xlink:href="#glyph1-16"/><use x="683.6" y="82.3" width="100" height="100" xlink:href="#glyph1-7"/><use x="683.6" y="77.9" width="100" height="100" xlink:href="#glyph1-6"/><use x="683.6" y="76.1" width="100" height="100" xlink:href="#glyph1-17"/><use x="683.6" y="72.2" width="100" height="100" xlink:href="#glyph1-4"/><use x="683.6" y="67.8" width="100" height="100" xlink:href="#glyph1-7"/><use x="683.6" y="63.4" width="100" height="100" xlink:href="#glyph1-18"/><use x="683.6" y="61.2" width="100" height="100" xlink:href="#glyph1-16"/><use x="683.6" y="58.5" width="100" height="100" xlink:href="#glyph1-4"/><use x="683.6" y="54.1" width="100" height="100" xlink:href="#glyph1-5"/><use x="683.6" y="50.2" width="100" height="100" xlink:href="#glyph1-6"/><use x="683.6" y="48.4" width="100" height="100" xlink:href="#glyph1-7"/><use x="683.6" y="44" width="100" height="100" xlink:href="#glyph1-8"/><use x="683.6" y="39.6" width="100" height="100" xlink:href="#glyph1-9"/><use x="683.6" y="35.2" width="100" height="100" xlink:href="#glyph1-10"/><use x="683.6" y="33.4" width="100" height="100" xlink:href="#glyph1-5"/></g><g CLIP-PATH="url("#clip13")"><path d="m756.7 94.3c0 2.4-3.6 2.4-3.6 0 0-2.4 3.6-2.4 3.6 0" class="a"/><path d="m767.8 90.6c0 2.4-3.6 2.4-3.6 0 0-2.4 3.6-2.4 3.6 0" class="a"/><path d="m754.9 92.6c0 2.4-3.6 2.4-3.6 0 0-2.4 3.6-2.4 3.6 0" class="a"/><path d="m749.9 71.4c0 2.4-3.6 2.4-3.6 0 0-2.4 3.6-2.4 3.6 0" class="a"/><path d="m751.3 69.3c0 2.4-3.6 2.4-3.6 0 0-2.4 3.6-2.4 3.6 0" class="a"/><path d="m750.3 86.5c0 2.4-3.6 2.4-3.6 0 0-2.4 3.6-2.4 3.6 0" class="a"/><path d="m793.7 77c0 2.4-3.6 2.4-3.6 0 0-2.4 3.6-2.4 3.6 0" class="a"/><path d="m768.9 65c0 2.4-3.6 2.4-3.6 0 0-2.4 3.6-2.4 3.6 0" class="a"/><path d="m754 67.9c0 2.4-3.6 2.4-3.6 0 0-2.4 3.6-2.4 3.6 0" class="a"/><path d="m745.4 77.2c0 2.4-3.6 2.4-3.6 0 0-2.4 3.6-2.4 3.6 0" class="a"/><path d="m745.4 84.7c0 2.4-3.6 2.4-3.6 0 0-2.4 3.6-2.4 3.6 0" class="a"/><path d="m743.7 71c0 2.4-3.6 2.4-3.6 0 0-2.4 3.6-2.4 3.6 0" class="a"/><path d="m744.2 71.4c0 2.4-3.6 2.4-3.6 0 0-2.4 3.6-2.4 3.6 0" class="a"/><path d="m743.5 81.9c0 2.4-3.6 2.4-3.6 0 0-2.4 3.6-2.4 3.6 0" class="a"/><path d="m809.6 80.4c0 2.4-3.6 2.4-3.6 0 0-2.4 3.6-2.4 3.6 0" class="a"/><path d="m823.6 75.2c0 2.4-3.6 2.4-3.6 0 0-2.4 3.6-2.4 3.6 0" class="a"/><path d="m807.8 47.7c0 2.4-3.6 2.4-3.6 0 0-2.4 3.6-2.4 3.6 0" class="a"/><path d="m763.4 47.4c0 2.4-3.6 2.4-3.6 0 0-2.4 3.6-2.4 3.6 0" class="a"/><path d="m768.6 70.6c0 2.4-3.6 2.4-3.6 0 0-2.4 3.6-2.4 3.6 0" class="a"/><path d="m761.6 45.2c0 2.4-3.6 2.4-3.6 0 0-2.4 3.6-2.4 3.6 0" class="a"/><path d="m785.4 85.7c0 2.4-3.6 2.4-3.6 0 0-2.4 3.6-2.4 3.6 0" class="a"/><path d="m743.2 90.3c0 2.4-3.6 2.4-3.6 0 0-2.4 3.6-2.4 3.6 0" class="a"/><path d="m745 93.3c0 2.4-3.6 2.4-3.6 0 0-2.4 3.6-2.4 3.6 0" class="a"/><path d="m775.9 78.3c0 2.4-3.6 2.4-3.6 0 0-2.4 3.6-2.4 3.6 0" class="a"/><path d="m742.2 60.5c0 2.4-3.6 2.4-3.6 0 0-2.4 3.6-2.4 3.6 0" class="a"/><path d="m760.7 79.7c0 2.4-3.6 2.4-3.6 0 0-2.4 3.6-2.4 3.6 0" class="a"/><path d="m754.1 78.4c0 2.4-3.6 2.4-3.6 0 0-2.4 3.6-2.4 3.6 0" class="a"/><path d="m781.1 59.2c0 2.4-3.6 2.4-3.6 0 0-2.4 3.6-2.4 3.6 0" class="a"/><path d="m805 83.1c0 2.4-3.6 2.4-3.6 0 0-2.4 3.6-2.4 3.6 0" class="a"/><path d="m756.9 85.8c0 2.4-3.6 2.4-3.6 0 0-2.4 3.6-2.4 3.6 0" class="a"/><path d="m875.7 63.8c0 2.4-3.6 2.4-3.6 0 0-2.4 3.6-2.4 3.6 0" class="a"/><path d="m763.4 90c0 2.4-3.6 2.4-3.6 0 0-2.4 3.6-2.4 3.6 0" class="a"/><path d="m740.4 77.4l1.1 0.3 0.2 0.1 0.3 0.1 0.5 0.1 0.7 0.2 0.5 0.1 4.5 1.2 0.4 0.1 0.9 0.2 2.7 0.3 0.1 0 0.8-0.1 1.7-0.3 0.2-0.1 3.8-1.4 0.9-0.3 1.8-0.5 0 0 4.4-1.6 0.7-0.1 0.3 0 7 0 5.2 0.1 4.3 0 8.3-0.1 11.3 0 2.8 0 1.7 0 14-1.8 52.1-8.9" class="b"/><path d="M714 75.6H880" class="c"/><path d="M720.1 100.5V39" class="c"/><path d="m741.6 0l0.7 1.3 1.6 2.7 1.6 2.4 1.6 2.2 1.6 2 1.6 1.9 1.6 1.7 1.6 1.6 1.6 1.5 1.6 1.4 1.6 1.3 1.6 1.3 1.6 1.2 1.6 1.1 1.6 1.1 1.6 1 1.6 1 1.6 0.9 1.6 0.9 1.6 0.8 1.6 0.8 1.6 0.8 1.6 0.7 1.6 0.7 1.6 0.7 1.6 0.7 1.6 0.6 1.6 0.6 1.6 0.6 1.6 0.6 1.6 0.6 1.6 0.5 1.6 0.5 1.6 0.5 1.6 0.5 1.6 0.5 1.6 0.5 1.6 0.4 1.6 0.4 1.6 0.4 1.6 0.4 1.6 0.4 1.6 0.4 1.6 0.4 1.6 0.4 1.6 0.4 1.6 0.4 1.6 0.4 1.6 0.3 1.6 0.3 1.6 0.3 1.6 0.3 1.6 0.3 1.6 0.3 1.6 0.3 1.6 0.3 1.6 0.3 1.6 0.3 1.6 0.3 1.6 0.3 1.6 0.3 1.6 0.3 1.6 0.3 1.6 0.3 1.6 0.3 1.6 0.3 1.6 0.3 1.6 0.2 1.6 0.2 1.6 0.2 1.6 0.2 1.6 0.2 1.6 0.2 1.6 0.2 1.6 0.2 3.2 0.4 1.6 0.2 1.6 0.2 1.6 0.2 1.6 0.2 1.6 0.2 1.6 0.2 1.6 0.2 1.6 0.2 1.6 0.2 1.6 0.2 1.6 0.2" class="d"/><path d="m742.8 149l1-1.7 1.6-2.4 1.6-2.2 1.6-2 1.6-1.9 1.6-1.7 1.6-1.6 1.6-1.5 1.6-1.4 1.6-1.3 1.6-1.2 1.6-1.2 1.6-1.1 1.6-1.1 1.6-1 1.6-1 1.6-0.9 1.6-0.9 1.6-0.8 1.6-0.8 1.6-0.8 1.6-0.7 1.6-0.7 1.6-0.7 1.6-0.7 1.6-0.6 1.6-0.6 1.6-0.6 1.6-0.6 1.6-0.6 1.6-0.5 1.6-0.5 1.6-0.5 1.6-0.5 1.6-0.5 1.6-0.5 1.6-0.4 1.6-0.4 1.6-0.4 1.6-0.4 1.6-0.4 1.6-0.4 1.6-0.4 1.6-0.4 1.6-0.4 1.6-0.4 1.6-0.4 1.6-0.3 1.6-0.3 1.6-0.3 1.6-0.3 1.6-0.3 1.6-0.3 1.6-0.3 1.6-0.3 1.6-0.3 1.6-0.3 1.6-0.3 1.6-0.3 1.6-0.3 1.6-0.3 1.6-0.3 1.6-0.3 1.6-0.3 1.6-0.2 1.6-0.2 1.6-0.2 1.6-0.2 1.6-0.2 1.6-0.2 1.6-0.2 1.6-0.2 1.6-0.2 1.6-0.2 3.2-0.4 1.6-0.2 1.6-0.2 1.6-0.2 1.6-0.2 1.6-0.2 1.6-0.2 1.6-0.2 1.6-0.2 1.6-0.2 1.6-0.2 1.6-0.2" class="d"/><path d="m760.7 0l0.6 0.6 1.6 1.6 1.6 1.5 1.6 1.4 1.6 1.4 1.6 1.3L770.8 9l1.6 1.2 1.6 1.1 1.6 1.1 1.6 1 1.6 1 1.6 1 1.6 0.9 1.6 0.9 1.6 0.9 1.6 0.8 1.6 0.8 1.6 0.8 1.6 0.8 1.6 0.7 1.6 0.7 1.6 0.7 1.6 0.7 1.6 0.7 1.6 0.6 1.6 0.6 1.6 0.6 1.6 0.6 1.6 0.6 1.6 0.6 1.6 0.5 1.6 0.5 1.6 0.5 1.6 0.5 1.6 0.5 1.6 0.5 1.6 0.5 1.6 0.5 1.6 0.5 1.6 0.4 1.6 0.4 1.6 0.4 1.6 0.4 1.6 0.4 1.6 0.4 1.6 0.4 1.6 0.4 1.6 0.4 1.6 0.4 1.6 0.4 1.6 0.4 1.6 0.4 1.6 0.4 1.6 0.4 1.6 0.3 1.6 0.3 1.6 0.3 1.6 0.3 1.6 0.3 1.6 0.3 1.6 0.3 1.6 0.3 1.6 0.3 1.6 0.3 1.6 0.3 1.6 0.3 1.6 0.3 1.6 0.3 1.6 0.3 1.6 0.3 1.6 0.3 1.6 0.3 1.6 0.3 1.6 0.3 1.6 0.3" class="d"/><path d="m762.9 149l1.5-1.5 1.6-1.4 1.6-1.4 1.6-1.3 1.6-1.2 1.6-1.2 1.6-1.1 1.6-1.1 1.6-1 1.6-1 1.6-1 1.6-0.9 1.6-0.9 1.6-0.9 1.6-0.8 1.6-0.8 1.6-0.8 1.6-0.8 1.6-0.7 1.6-0.7 1.6-0.7 1.6-0.7 1.6-0.7 1.6-0.6 1.6-0.6 1.6-0.6 1.6-0.6 1.6-0.6 1.6-0.6 1.6-0.6 1.6-0.5 1.6-0.5 1.6-0.5 1.6-0.5 1.6-0.5 1.6-0.5 1.6-0.5 1.6-0.5 1.6-0.5 1.6-0.4 1.6-0.4 1.6-0.4 1.6-0.4 1.6-0.4 1.6-0.4 1.6-0.4 1.6-0.4 1.6-0.4 1.6-0.4 1.6-0.4 1.6-0.4 1.6-0.4 1.6-0.4 1.6-0.3 1.6-0.3 1.6-0.3 1.6-0.3 1.6-0.3 1.6-0.3 1.6-0.3 1.6-0.3 1.6-0.3 1.6-0.3 1.6-0.3 1.6-0.3 1.6-0.3 1.6-0.3 1.6-0.3 1.6-0.3 1.6-0.3 1.6-0.3 1.6-0.3 1.6-0.3 1.6-0.3" class="d"/><path d="m731.2 97.6h34.4" class="d"/><use x="782.8" y="100.4" width="100" height="100" xlink:href="#glyph0-28"/><use x="788.5" y="100.4" width="100" height="100" xlink:href="#glyph0-19"/><use x="793" y="100.4" width="100" height="100" xlink:href="#glyph0-19"/><use x="797.4" y="100.4" width="100" height="100" xlink:href="#glyph0-29"/><use x="801.3" y="100.4" width="100" height="100" xlink:href="#glyph0-30"/><use x="802.8" y="100.4" width="100" height="100" xlink:href="#glyph0-15"/><use x="806.8" y="100.4" width="100" height="100" xlink:href="#glyph0-10"/><use x="809" y="100.4" width="100" height="100" xlink:href="#glyph0-9"/><use x="813.4" y="100.4" width="100" height="100" xlink:href="#glyph0-6"/><use x="815.2" y="100.4" width="100" height="100" xlink:href="#glyph0-15"/><use x="819.1" y="100.4" width="100" height="100" xlink:href="#glyph0-7"/><use x="821.3" y="100.4" width="100" height="100" xlink:href="#glyph0-12"/><use x="825.7" y="100.4" width="100" height="100" xlink:href="#glyph0-23"/><use x="830.1" y="100.4" width="100" height="100" xlink:href="#glyph0-21"/><use x="834.1" y="100.4" width="100" height="100" xlink:href="#glyph0-8"/></g><path d="M880 100.5V45.1" class="a"/><path d="m880 97.2v0" class="a"/><path d="m880 54.1v0" class="a"/><path d="m880 45.1v0" class="a"/><g class="e"><use x="882.4" y="99.3" width="100" height="100" xlink:href="#glyph3-1"/><use x="885.7" y="99.3" width="100" height="100" xlink:href="#glyph3-5"/><use x="887.4" y="99.3" width="100" height="100" xlink:href="#glyph3-6"/></g><g class="e"><use x="882.4" y="56.2" width="100" height="100" xlink:href="#glyph3-1"/><use x="885.7" y="56.2" width="100" height="100" xlink:href="#glyph3-5"/><use x="887.4" y="56.2" width="100" height="100" xlink:href="#glyph3-6"/></g><g class="e"><use x="882.4" y="47.3" width="100" height="100" xlink:href="#glyph3-2"/></g><use x="736.3" y="34.7" width="100" height="100" xlink:href="#glyph2-0"/><use x="745" y="34.7" width="100" height="100" xlink:href="#glyph2-1"/><use x="751.6" y="34.7" width="100" height="100" xlink:href="#glyph2-2"/><use x="757.6" y="34.7" width="100" height="100" xlink:href="#glyph2-3"/><use x="760.3" y="34.7" width="100" height="100" xlink:href="#glyph2-4"/><use x="767" y="34.7" width="100" height="100" xlink:href="#glyph2-5"/><use x="773.7" y="34.7" width="100" height="100" xlink:href="#glyph2-6"/><use x="780.3" y="34.7" width="100" height="100" xlink:href="#glyph2-7"/><use x="783" y="34.7" width="100" height="100" xlink:href="#glyph2-2"/><use x="789" y="34.7" width="100" height="100" xlink:href="#glyph2-8"/><use x="792.3" y="34.7" width="100" height="100" xlink:href="#glyph2-9"/><use x="798.3" y="34.7" width="100" height="100" xlink:href="#glyph2-2"/><use x="804.3" y="34.7" width="100" height="100" xlink:href="#glyph2-8"/><use x="807.7" y="34.7" width="100" height="100" xlink:href="#glyph2-20"/><use x="814.3" y="34.7" width="100" height="100" xlink:href="#glyph2-1"/><use x="821" y="34.7" width="100" height="100" xlink:href="#glyph2-9"/><use x="827" y="34.7" width="100" height="100" xlink:href="#glyph2-1"/><use x="833.7" y="34.7" width="100" height="100" xlink:href="#glyph2-14"/><use x="837.7" y="34.7" width="100" height="100" xlink:href="#glyph2-6"/><use x="844.4" y="34.7" width="100" height="100" xlink:href="#glyph2-22"/><use x="851" y="34.7" width="100" height="100" xlink:href="#glyph2-1"/><g CLIP-PATH="url("#clip14")"><use x="797.1" y="49.2" width="100" height="100" xlink:href="#glyph3-2"/><use x="800.4" y="49.2" width="100" height="100" xlink:href="#glyph3-4"/><use x="762.2" y="46.6" width="100" height="100" xlink:href="#glyph3-0"/><use x="765.5" y="46.6" width="100" height="100" xlink:href="#glyph3-1"/><use x="764" y="48.8" width="100" height="100" xlink:href="#glyph3-2"/><use x="767.3" y="48.8" width="100" height="100" xlink:href="#glyph3-3"/></g></g></svg>